<mxfile host="Electron" modified="2023-05-23T07:11:51.848Z" agent="Mozilla/5.0 (Windows NT 10.0; Win64; x64) AppleWebKit/537.36 (KHTML, like Gecko) draw.io/21.2.8 Chrome/112.0.5615.165 Electron/24.2.0 Safari/537.36" etag="M1mAgQRGgQfg58lRrl0w" version="21.2.8" type="device">
  <diagram name="Pagina-1" id="All7uzV2OwWNBoKM_PWa">
    <mxGraphModel dx="1418" dy="820" grid="0" gridSize="10" guides="1" tooltips="1" connect="1" arrows="1" fold="1" page="1" pageScale="1" pageWidth="1654" pageHeight="1169" background="#ffffff" math="0" shadow="0">
      <root>
        <mxCell id="0" />
        <mxCell id="1" parent="0" />
        <mxCell id="IGpdcPXpx3QODBAOmaDT-58" style="rounded=1;orthogonalLoop=1;jettySize=auto;html=1;exitX=0;exitY=0.25;exitDx=0;exitDy=0;exitPerimeter=0;endArrow=oval;endFill=0;fontSize=15;entryX=1.01;entryY=0.647;entryDx=0;entryDy=0;entryPerimeter=0;labelBackgroundColor=none;fontColor=default;strokeColor=#A8201A;" parent="1" source="IGpdcPXpx3QODBAOmaDT-8" target="IGpdcPXpx3QODBAOmaDT-66" edge="1">
          <mxGeometry relative="1" as="geometry">
            <mxPoint x="431.5" y="460" as="targetPoint" />
          </mxGeometry>
        </mxCell>
        <mxCell id="IGpdcPXpx3QODBAOmaDT-72" style="edgeStyle=none;shape=connector;rounded=1;orthogonalLoop=1;jettySize=auto;html=1;labelBackgroundColor=none;fontFamily=Helvetica;fontSize=15;fontColor=default;endArrow=oval;endFill=0;entryX=1;entryY=0.567;entryDx=0;entryDy=0;entryPerimeter=0;strokeColor=#A8201A;" parent="1" source="IGpdcPXpx3QODBAOmaDT-8" target="IGpdcPXpx3QODBAOmaDT-73" edge="1">
          <mxGeometry relative="1" as="geometry">
            <mxPoint x="220" y="550" as="targetPoint" />
          </mxGeometry>
        </mxCell>
        <mxCell id="IGpdcPXpx3QODBAOmaDT-102" style="edgeStyle=none;shape=connector;rounded=1;orthogonalLoop=1;jettySize=auto;html=1;labelBackgroundColor=none;fontFamily=Helvetica;fontSize=15;fontColor=default;endArrow=none;endFill=0;strokeColor=#A8201A;exitX=0.75;exitY=1;exitDx=0;exitDy=0;exitPerimeter=0;" parent="1" source="IGpdcPXpx3QODBAOmaDT-8" target="IGpdcPXpx3QODBAOmaDT-101" edge="1">
          <mxGeometry relative="1" as="geometry">
            <mxPoint x="476" y="520" as="sourcePoint" />
            <mxPoint x="470" y="590" as="targetPoint" />
          </mxGeometry>
        </mxCell>
        <mxCell id="9Mot5vRxFBjQDdBxqjVs-73" style="edgeStyle=none;shape=connector;rounded=1;orthogonalLoop=1;jettySize=auto;html=1;exitX=0;exitY=0;exitDx=0;exitDy=0;exitPerimeter=0;entryX=0.477;entryY=0.94;entryDx=0;entryDy=0;entryPerimeter=0;labelBackgroundColor=none;fontFamily=Helvetica;fontSize=15;fontColor=default;endArrow=oval;endFill=1;strokeColor=#A8201A;" parent="1" source="IGpdcPXpx3QODBAOmaDT-8" target="IGpdcPXpx3QODBAOmaDT-81" edge="1">
          <mxGeometry relative="1" as="geometry" />
        </mxCell>
        <mxCell id="9Mot5vRxFBjQDdBxqjVs-123" style="edgeStyle=none;shape=connector;rounded=1;orthogonalLoop=1;jettySize=auto;html=1;exitX=0.069;exitY=1.05;exitDx=0;exitDy=0;exitPerimeter=0;entryX=0.733;entryY=0;entryDx=0;entryDy=0;entryPerimeter=0;labelBackgroundColor=none;fontFamily=Helvetica;fontSize=15;fontColor=default;endArrow=oval;endFill=0;strokeColor=#A8201A;" parent="1" source="IGpdcPXpx3QODBAOmaDT-8" target="IGpdcPXpx3QODBAOmaDT-69" edge="1">
          <mxGeometry relative="1" as="geometry">
            <Array as="points" />
          </mxGeometry>
        </mxCell>
        <mxCell id="2ZxViYWchOxOmelXp1Hh-10" style="edgeStyle=orthogonalEdgeStyle;rounded=1;orthogonalLoop=1;jettySize=auto;html=1;exitX=0.25;exitY=1;exitDx=0;exitDy=0;exitPerimeter=0;entryX=0.5;entryY=0;entryDx=0;entryDy=0;endArrow=none;endFill=0;labelBackgroundColor=none;fontColor=default;strokeColor=#A8201A;" parent="1" source="IGpdcPXpx3QODBAOmaDT-8" target="2ZxViYWchOxOmelXp1Hh-9" edge="1">
          <mxGeometry relative="1" as="geometry" />
        </mxCell>
        <mxCell id="b7XLntytt7OJGYTTH7YX-4" style="edgeStyle=none;shape=connector;rounded=1;orthogonalLoop=1;jettySize=auto;html=1;exitX=0;exitY=0.75;exitDx=0;exitDy=0;exitPerimeter=0;labelBackgroundColor=none;fontFamily=Helvetica;fontSize=15;fontColor=default;endArrow=oval;endFill=0;strokeColor=#A8201A;" parent="1" source="IGpdcPXpx3QODBAOmaDT-8" target="b7XLntytt7OJGYTTH7YX-3" edge="1">
          <mxGeometry relative="1" as="geometry" />
        </mxCell>
        <mxCell id="IGpdcPXpx3QODBAOmaDT-8" value="SCUOLA" style="rounded=1;whiteSpace=wrap;html=1;shadow=0;glass=0;points=[[0,0,0,0,0],[0,0.25,0,0,0],[0,0.5,0,0,0],[0,0.75,0,0,0],[0,1,0,0,0],[0.25,0,0,0,0],[0.25,1,0,0,0],[0.5,0,0,0,0],[0.5,1,0,0,0],[0.75,0,0,0,0],[0.75,1,0,0,0],[1,0,0,0,0],[1,0.25,0,0,0],[1,0.5,0,0,0],[1,0.75,0,0,0],[1,1,0,0,0]];fontSize=15;labelBackgroundColor=none;fillColor=#FAE5C7;strokeColor=#0F8B8D;fontColor=#143642;" parent="1" vertex="1">
          <mxGeometry x="330" y="480" width="158.5" height="40" as="geometry" />
        </mxCell>
        <mxCell id="IGpdcPXpx3QODBAOmaDT-64" style="edgeStyle=none;shape=connector;rounded=1;orthogonalLoop=1;jettySize=auto;html=1;exitX=1;exitY=0.5;exitDx=0;exitDy=0;entryX=0;entryY=0.5;entryDx=0;entryDy=0;labelBackgroundColor=none;fontFamily=Helvetica;fontSize=15;fontColor=default;endArrow=none;endFill=0;strokeColor=#A8201A;" parent="1" source="IGpdcPXpx3QODBAOmaDT-10" target="IGpdcPXpx3QODBAOmaDT-12" edge="1">
          <mxGeometry relative="1" as="geometry">
            <mxPoint x="1073.5000000000005" y="501" as="sourcePoint" />
          </mxGeometry>
        </mxCell>
        <mxCell id="IGpdcPXpx3QODBAOmaDT-10" value="Partecipa" style="rhombus;whiteSpace=wrap;html=1;rounded=1;shadow=0;glass=0;fontSize=15;align=center;verticalAlign=middle;labelBackgroundColor=none;fillColor=#FAE5C7;strokeColor=#0F8B8D;fontColor=#143642;" parent="1" vertex="1">
          <mxGeometry x="930" y="471" width="111.5" height="60" as="geometry" />
        </mxCell>
        <mxCell id="IGpdcPXpx3QODBAOmaDT-93" style="edgeStyle=none;shape=connector;rounded=1;orthogonalLoop=1;jettySize=auto;html=1;labelBackgroundColor=none;fontFamily=Helvetica;fontSize=15;fontColor=default;endArrow=oval;endFill=0;entryX=0.493;entryY=0.047;entryDx=0;entryDy=0;entryPerimeter=0;exitX=0.7;exitY=0.986;exitDx=0;exitDy=0;exitPerimeter=0;strokeColor=#A8201A;" parent="1" edge="1">
          <mxGeometry relative="1" as="geometry">
            <mxPoint x="1159" y="520.4399999999999" as="sourcePoint" />
            <mxPoint x="1158.58" y="536.4100000000001" as="targetPoint" />
          </mxGeometry>
        </mxCell>
        <mxCell id="IGpdcPXpx3QODBAOmaDT-94" style="edgeStyle=none;shape=connector;rounded=1;orthogonalLoop=1;jettySize=auto;html=1;exitX=0.614;exitY=0.989;exitDx=0;exitDy=0;exitPerimeter=0;labelBackgroundColor=none;fontFamily=Helvetica;fontSize=15;fontColor=default;endArrow=oval;endFill=0;strokeColor=#A8201A;" parent="1" target="IGpdcPXpx3QODBAOmaDT-86" edge="1">
          <mxGeometry relative="1" as="geometry">
            <mxPoint x="1190.4" y="520.5600000000001" as="sourcePoint" />
            <mxPoint x="1191.2" y="557.13" as="targetPoint" />
          </mxGeometry>
        </mxCell>
        <mxCell id="IGpdcPXpx3QODBAOmaDT-95" style="edgeStyle=none;shape=connector;rounded=1;orthogonalLoop=1;jettySize=auto;html=1;exitX=0.25;exitY=1;exitDx=0;exitDy=0;exitPerimeter=0;labelBackgroundColor=none;fontFamily=Helvetica;fontSize=15;fontColor=default;endArrow=oval;endFill=0;strokeColor=#A8201A;entryX=0.763;entryY=0.1;entryDx=0;entryDy=0;entryPerimeter=0;" parent="1" source="IGpdcPXpx3QODBAOmaDT-12" target="IGpdcPXpx3QODBAOmaDT-89" edge="1">
          <mxGeometry relative="1" as="geometry">
            <mxPoint x="1119" y="575" as="targetPoint" />
          </mxGeometry>
        </mxCell>
        <mxCell id="IGpdcPXpx3QODBAOmaDT-96" style="edgeStyle=none;shape=connector;rounded=1;orthogonalLoop=1;jettySize=auto;html=1;exitX=1;exitY=0.75;exitDx=0;exitDy=0;exitPerimeter=0;labelBackgroundColor=none;fontFamily=Helvetica;fontSize=15;fontColor=default;endArrow=oval;endFill=1;strokeColor=#A8201A;" parent="1" source="IGpdcPXpx3QODBAOmaDT-12" target="IGpdcPXpx3QODBAOmaDT-90" edge="1">
          <mxGeometry relative="1" as="geometry">
            <mxPoint x="1224" y="471" as="targetPoint" />
          </mxGeometry>
        </mxCell>
        <mxCell id="hBhSmYuqApCjBbth0nBB-1" style="edgeStyle=orthogonalEdgeStyle;rounded=0;orthogonalLoop=1;jettySize=auto;html=1;exitX=1;exitY=0.5;exitDx=0;exitDy=0;exitPerimeter=0;entryX=0.05;entryY=0.5;entryDx=0;entryDy=0;entryPerimeter=0;strokeColor=#A8201A;fontColor=default;fillColor=#FAE5C7;endArrow=none;endFill=0;labelBackgroundColor=none;" parent="1" source="IGpdcPXpx3QODBAOmaDT-12" target="9Mot5vRxFBjQDdBxqjVs-86" edge="1">
          <mxGeometry relative="1" as="geometry" />
        </mxCell>
        <mxCell id="IGpdcPXpx3QODBAOmaDT-12" value="PERSONA" style="whiteSpace=wrap;html=1;rounded=1;shadow=0;glass=0;fontSize=15;points=[[0,0,0,0,0],[0,0.25,0,0,0],[0,0.5,0,0,0],[0,0.75,0,0,0],[0,1,0,0,0],[0.25,0,0,0,0],[0.25,1,0,0,0],[0.5,0,0,0,0],[0.5,1,0,0,0],[0.75,0,0,0,0],[0.75,1,0,0,0],[1,0,0,0,0],[1,0.25,0,0,0],[1,0.5,0,0,0],[1,0.75,0,0,0],[1,1,0,0,0]];labelBackgroundColor=none;fillColor=#FAE5C7;strokeColor=#0F8B8D;fontColor=#143642;" parent="1" vertex="1">
          <mxGeometry x="1094" y="481" width="100" height="40" as="geometry" />
        </mxCell>
        <mxCell id="IGpdcPXpx3QODBAOmaDT-66" value="Nome" style="text;html=1;align=center;verticalAlign=middle;resizable=0;points=[];autosize=1;strokeColor=none;fillColor=none;fontSize=15;fontFamily=Helvetica;labelBackgroundColor=none;rounded=1;fontColor=#143642;" parent="1" vertex="1">
          <mxGeometry x="164" y="471" width="60" height="30" as="geometry" />
        </mxCell>
        <mxCell id="IGpdcPXpx3QODBAOmaDT-69" value="Provincia" style="text;html=1;align=center;verticalAlign=middle;resizable=0;points=[];autosize=1;strokeColor=none;fillColor=none;fontSize=15;fontFamily=Helvetica;labelBackgroundColor=none;rounded=1;fontColor=#143642;" parent="1" vertex="1">
          <mxGeometry x="214" y="576" width="90" height="30" as="geometry" />
        </mxCell>
        <mxCell id="IGpdcPXpx3QODBAOmaDT-73" value="Ciclo_Istruzione" style="text;html=1;align=center;verticalAlign=middle;resizable=0;points=[];autosize=1;strokeColor=none;fillColor=none;fontSize=15;fontFamily=Helvetica;labelBackgroundColor=none;rotation=0;rounded=1;fontColor=#143642;" parent="1" vertex="1">
          <mxGeometry x="94" y="521" width="130" height="30" as="geometry" />
        </mxCell>
        <mxCell id="IGpdcPXpx3QODBAOmaDT-75" value="0,1" style="text;html=1;align=center;verticalAlign=middle;resizable=0;points=[];autosize=1;strokeColor=none;fillColor=none;fontSize=15;fontFamily=Helvetica;rounded=1;labelBackgroundColor=none;fontColor=#143642;" parent="1" vertex="1">
          <mxGeometry x="790" y="449" width="40" height="30" as="geometry" />
        </mxCell>
        <mxCell id="IGpdcPXpx3QODBAOmaDT-81" value="cod_Meccanografico" style="text;html=1;align=center;verticalAlign=middle;resizable=0;points=[];autosize=1;strokeColor=none;fillColor=none;fontSize=15;fontFamily=Helvetica;labelBackgroundColor=none;rounded=1;fontColor=#143642;" parent="1" vertex="1">
          <mxGeometry x="114" y="419" width="160" height="30" as="geometry" />
        </mxCell>
        <mxCell id="IGpdcPXpx3QODBAOmaDT-85" value="Nome" style="text;html=1;align=center;verticalAlign=middle;resizable=0;points=[];autosize=1;strokeColor=none;fillColor=none;fontSize=15;fontFamily=Helvetica;labelBackgroundColor=none;rounded=1;fontColor=#143642;" parent="1" vertex="1">
          <mxGeometry x="1134" y="535" width="60" height="30" as="geometry" />
        </mxCell>
        <mxCell id="IGpdcPXpx3QODBAOmaDT-86" value="Cognome" style="text;html=1;align=center;verticalAlign=middle;resizable=0;points=[];autosize=1;strokeColor=none;fillColor=none;fontSize=15;fontFamily=Helvetica;labelBackgroundColor=none;rounded=1;fontColor=#143642;" parent="1" vertex="1">
          <mxGeometry x="1145" y="560" width="90" height="30" as="geometry" />
        </mxCell>
        <mxCell id="IGpdcPXpx3QODBAOmaDT-89" value="Telefono" style="text;html=1;align=center;verticalAlign=middle;resizable=0;points=[];autosize=1;strokeColor=none;fillColor=none;fontSize=15;fontFamily=Helvetica;labelBackgroundColor=none;rounded=1;fontColor=#143642;" parent="1" vertex="1">
          <mxGeometry x="1057" y="573" width="80" height="30" as="geometry" />
        </mxCell>
        <mxCell id="IGpdcPXpx3QODBAOmaDT-90" value="Email" style="text;html=1;align=center;verticalAlign=middle;resizable=0;points=[];autosize=1;strokeColor=none;fillColor=none;fontSize=15;fontFamily=Helvetica;labelBackgroundColor=none;rounded=1;fontColor=#143642;" parent="1" vertex="1">
          <mxGeometry x="1204" y="531" width="60" height="30" as="geometry" />
        </mxCell>
        <mxCell id="IGpdcPXpx3QODBAOmaDT-100" value="0,1" style="text;html=1;align=center;verticalAlign=middle;resizable=0;points=[];autosize=1;strokeColor=none;fillColor=none;fontSize=15;fontFamily=Helvetica;rounded=1;labelBackgroundColor=none;fontColor=#143642;" parent="1" vertex="1">
          <mxGeometry x="1081.5" y="550" width="40" height="30" as="geometry" />
        </mxCell>
        <mxCell id="hBhSmYuqApCjBbth0nBB-8" style="edgeStyle=orthogonalEdgeStyle;rounded=0;orthogonalLoop=1;jettySize=auto;html=1;exitX=0.5;exitY=1;exitDx=0;exitDy=0;entryX=0.657;entryY=-0.126;entryDx=0;entryDy=0;entryPerimeter=0;strokeColor=#A8201A;fontColor=default;fillColor=#FAE5C7;endArrow=none;endFill=0;labelBackgroundColor=none;" parent="1" source="IGpdcPXpx3QODBAOmaDT-101" target="IGpdcPXpx3QODBAOmaDT-103" edge="1">
          <mxGeometry relative="1" as="geometry" />
        </mxCell>
        <mxCell id="IGpdcPXpx3QODBAOmaDT-101" value="Possiede" style="rhombus;whiteSpace=wrap;html=1;fontFamily=Helvetica;fontSize=15;labelBackgroundColor=none;rounded=1;fillColor=#FAE5C7;strokeColor=#0F8B8D;fontColor=#143642;" parent="1" vertex="1">
          <mxGeometry x="406.5" y="633" width="87.5" height="70" as="geometry" />
        </mxCell>
        <mxCell id="9Mot5vRxFBjQDdBxqjVs-21" style="edgeStyle=none;shape=connector;rounded=1;orthogonalLoop=1;jettySize=auto;html=1;exitX=0;exitY=0.5;exitDx=0;exitDy=0;exitPerimeter=0;entryX=1.005;entryY=0.58;entryDx=0;entryDy=0;entryPerimeter=0;labelBackgroundColor=none;fontFamily=Helvetica;fontSize=15;fontColor=default;endArrow=oval;endFill=0;strokeColor=#A8201A;" parent="1" source="IGpdcPXpx3QODBAOmaDT-103" target="9Mot5vRxFBjQDdBxqjVs-10" edge="1">
          <mxGeometry relative="1" as="geometry" />
        </mxCell>
        <mxCell id="9Mot5vRxFBjQDdBxqjVs-40" style="edgeStyle=none;shape=connector;rounded=1;orthogonalLoop=1;jettySize=auto;html=1;labelBackgroundColor=none;fontFamily=Helvetica;fontSize=15;fontColor=default;endArrow=oval;endFill=0;entryX=0.995;entryY=0.214;entryDx=0;entryDy=0;entryPerimeter=0;strokeColor=#A8201A;" parent="1" target="Dx_CMPOLSW68eJcPcujk-37" edge="1">
          <mxGeometry relative="1" as="geometry">
            <mxPoint x="344" y="851" as="sourcePoint" />
            <mxPoint x="290" y="910" as="targetPoint" />
          </mxGeometry>
        </mxCell>
        <mxCell id="9Mot5vRxFBjQDdBxqjVs-110" style="edgeStyle=none;shape=connector;rounded=1;orthogonalLoop=1;jettySize=auto;html=1;exitX=0.25;exitY=1;exitDx=0;exitDy=0;exitPerimeter=0;labelBackgroundColor=none;fontFamily=Helvetica;fontSize=15;fontColor=default;endArrow=oval;endFill=0;entryX=0.71;entryY=-0.014;entryDx=0;entryDy=0;entryPerimeter=0;strokeColor=#A8201A;" parent="1" source="IGpdcPXpx3QODBAOmaDT-103" target="9Mot5vRxFBjQDdBxqjVs-11" edge="1">
          <mxGeometry relative="1" as="geometry">
            <mxPoint x="293.5" y="855" as="sourcePoint" />
          </mxGeometry>
        </mxCell>
        <mxCell id="2ZxViYWchOxOmelXp1Hh-58" style="edgeStyle=none;shape=connector;rounded=1;orthogonalLoop=1;jettySize=auto;html=1;exitX=1;exitY=0.5;exitDx=0;exitDy=0;exitPerimeter=0;entryX=0;entryY=0.5;entryDx=0;entryDy=0;labelBackgroundColor=none;fontFamily=Helvetica;fontSize=15;fontColor=default;endArrow=none;endFill=0;strokeColor=#A8201A;" parent="1" source="IGpdcPXpx3QODBAOmaDT-103" target="9Mot5vRxFBjQDdBxqjVs-2" edge="1">
          <mxGeometry relative="1" as="geometry">
            <mxPoint x="560" y="841" as="targetPoint" />
          </mxGeometry>
        </mxCell>
        <mxCell id="b7XLntytt7OJGYTTH7YX-5" style="edgeStyle=none;shape=connector;rounded=1;orthogonalLoop=1;jettySize=auto;html=1;exitX=0;exitY=0.25;exitDx=0;exitDy=0;exitPerimeter=0;labelBackgroundColor=none;fontFamily=Helvetica;fontSize=15;fontColor=default;endArrow=oval;endFill=0;entryX=1.017;entryY=0.467;entryDx=0;entryDy=0;entryPerimeter=0;strokeColor=#A8201A;" parent="1" source="IGpdcPXpx3QODBAOmaDT-103" target="b7XLntytt7OJGYTTH7YX-2" edge="1">
          <mxGeometry relative="1" as="geometry" />
        </mxCell>
        <mxCell id="Dx_CMPOLSW68eJcPcujk-30" style="edgeStyle=orthogonalEdgeStyle;rounded=1;orthogonalLoop=1;jettySize=auto;html=1;exitX=0.5;exitY=1;exitDx=0;exitDy=0;exitPerimeter=0;entryX=0;entryY=0.5;entryDx=0;entryDy=0;endArrow=none;endFill=0;labelBackgroundColor=none;strokeColor=#A8201A;fontColor=default;" parent="1" source="IGpdcPXpx3QODBAOmaDT-103" target="Dx_CMPOLSW68eJcPcujk-28" edge="1">
          <mxGeometry relative="1" as="geometry" />
        </mxCell>
        <mxCell id="IGpdcPXpx3QODBAOmaDT-103" value="ORTO" style="rounded=1;whiteSpace=wrap;html=1;shadow=0;glass=0;points=[[0,0,0,0,0],[0,0.25,0,0,0],[0,0.5,0,0,0],[0,0.75,0,0,0],[0,1,0,0,0],[0.25,0,0,0,0],[0.25,1,0,0,0],[0.5,0,0,0,0],[0.5,1,0,0,0],[0.75,0,0,0,0],[0.75,1,0,0,0],[1,0,0,0,0],[1,0.25,0,0,0],[1,0.5,0,0,0],[1,0.75,0,0,0],[1,1,0,0,0]];fontSize=15;labelBackgroundColor=none;fillColor=#FAE5C7;strokeColor=#0F8B8D;fontColor=#143642;" parent="1" vertex="1">
          <mxGeometry x="334.5" y="809" width="175.5" height="40" as="geometry" />
        </mxCell>
        <mxCell id="IGpdcPXpx3QODBAOmaDT-109" style="edgeStyle=none;shape=connector;rounded=1;orthogonalLoop=1;jettySize=auto;html=1;entryX=0.25;entryY=0;entryDx=0;entryDy=0;entryPerimeter=0;labelBackgroundColor=none;fontFamily=Helvetica;fontSize=15;fontColor=default;endArrow=none;endFill=0;exitX=0.5;exitY=1;exitDx=0;exitDy=0;strokeColor=#A8201A;" parent="1" source="2ZxViYWchOxOmelXp1Hh-26" target="IGpdcPXpx3QODBAOmaDT-8" edge="1">
          <mxGeometry relative="1" as="geometry" />
        </mxCell>
        <mxCell id="IGpdcPXpx3QODBAOmaDT-110" style="edgeStyle=none;shape=connector;rounded=1;orthogonalLoop=1;jettySize=auto;html=1;labelBackgroundColor=none;fontFamily=Helvetica;fontSize=15;fontColor=default;endArrow=none;endFill=0;entryX=0.5;entryY=1;entryDx=0;entryDy=0;entryPerimeter=0;exitX=0.5;exitY=0;exitDx=0;exitDy=0;strokeColor=#A8201A;" parent="1" source="2ZxViYWchOxOmelXp1Hh-26" target="IGpdcPXpx3QODBAOmaDT-111" edge="1">
          <mxGeometry relative="1" as="geometry">
            <mxPoint x="369" y="260" as="targetPoint" />
            <Array as="points">
              <mxPoint x="369" y="280" />
            </Array>
            <mxPoint x="369.49290888684845" y="314.2571676359555" as="sourcePoint" />
          </mxGeometry>
        </mxCell>
        <mxCell id="IGpdcPXpx3QODBAOmaDT-114" style="edgeStyle=none;shape=connector;rounded=1;orthogonalLoop=1;jettySize=auto;html=1;labelBackgroundColor=none;fontFamily=Helvetica;fontSize=15;fontColor=default;endArrow=oval;endFill=0;exitX=0;exitY=0.5;exitDx=0;exitDy=0;exitPerimeter=0;strokeColor=#A8201A;" parent="1" source="IGpdcPXpx3QODBAOmaDT-111" target="IGpdcPXpx3QODBAOmaDT-113" edge="1">
          <mxGeometry relative="1" as="geometry">
            <mxPoint x="349" y="220" as="sourcePoint" />
            <mxPoint x="489" y="240" as="targetPoint" />
          </mxGeometry>
        </mxCell>
        <mxCell id="IGpdcPXpx3QODBAOmaDT-118" style="edgeStyle=none;shape=connector;rounded=1;orthogonalLoop=1;jettySize=auto;html=1;labelBackgroundColor=none;fontFamily=Helvetica;fontSize=15;fontColor=default;endArrow=oval;endFill=0;strokeColor=#A8201A;" parent="1" source="IGpdcPXpx3QODBAOmaDT-111" target="IGpdcPXpx3QODBAOmaDT-115" edge="1">
          <mxGeometry relative="1" as="geometry">
            <mxPoint x="387" y="220" as="sourcePoint" />
            <mxPoint x="386.6700000000001" y="190.48000000000002" as="targetPoint" />
          </mxGeometry>
        </mxCell>
        <mxCell id="IGpdcPXpx3QODBAOmaDT-120" style="edgeStyle=none;shape=connector;rounded=1;orthogonalLoop=1;jettySize=auto;html=1;exitX=0.25;exitY=0;exitDx=0;exitDy=0;exitPerimeter=0;labelBackgroundColor=none;fontFamily=Helvetica;fontSize=15;fontColor=default;endArrow=oval;endFill=0;strokeColor=#A8201A;" parent="1" source="IGpdcPXpx3QODBAOmaDT-111" target="IGpdcPXpx3QODBAOmaDT-116" edge="1">
          <mxGeometry relative="1" as="geometry">
            <mxPoint x="409.4000000000001" y="221.60000000000002" as="sourcePoint" />
            <mxPoint x="409.0783289817232" y="159.9999999999999" as="targetPoint" />
          </mxGeometry>
        </mxCell>
        <mxCell id="9Mot5vRxFBjQDdBxqjVs-77" style="edgeStyle=none;shape=connector;rounded=1;orthogonalLoop=1;jettySize=auto;html=1;exitX=1;exitY=0.5;exitDx=0;exitDy=0;exitPerimeter=0;labelBackgroundColor=none;fontFamily=Helvetica;fontSize=15;fontColor=default;endArrow=none;endFill=0;strokeColor=#A8201A;" parent="1" source="IGpdcPXpx3QODBAOmaDT-111" target="9Mot5vRxFBjQDdBxqjVs-78" edge="1">
          <mxGeometry relative="1" as="geometry">
            <mxPoint x="676.5" y="240" as="targetPoint" />
          </mxGeometry>
        </mxCell>
        <mxCell id="IGpdcPXpx3QODBAOmaDT-111" value="CLASSE" style="rounded=1;whiteSpace=wrap;html=1;shadow=0;glass=0;points=[[0,0,0,0,0],[0,0.25,0,0,0],[0,0.5,0,0,0],[0,0.75,0,0,0],[0,1,0,0,0],[0.25,0,0,0,0],[0.25,1,0,0,0],[0.5,0,0,0,0],[0.5,1,0,0,0],[0.75,0,0,0,0],[0.75,1,0,0,0],[1,0,0,0,0],[1,0.25,0,0,0],[1,0.5,0,0,0],[1,0.75,0,0,0],[1,1,0,0,0]];fontSize=15;labelBackgroundColor=none;fillColor=#FAE5C7;strokeColor=#0F8B8D;fontColor=#143642;" parent="1" vertex="1">
          <mxGeometry x="319" y="220" width="100" height="40" as="geometry" />
        </mxCell>
        <mxCell id="IGpdcPXpx3QODBAOmaDT-113" value="Nome" style="text;html=1;align=center;verticalAlign=middle;resizable=0;points=[];autosize=1;strokeColor=none;fillColor=none;fontSize=15;fontFamily=Helvetica;labelBackgroundColor=none;rounded=1;fontColor=#143642;" parent="1" vertex="1">
          <mxGeometry x="177" y="225" width="60" height="30" as="geometry" />
        </mxCell>
        <mxCell id="IGpdcPXpx3QODBAOmaDT-115" value="Ordine" style="text;html=1;align=center;verticalAlign=middle;resizable=0;points=[];autosize=1;strokeColor=none;fillColor=none;fontSize=15;fontFamily=Helvetica;labelBackgroundColor=none;rounded=1;fontColor=#143642;" parent="1" vertex="1">
          <mxGeometry x="209" y="170" width="70" height="30" as="geometry" />
        </mxCell>
        <mxCell id="IGpdcPXpx3QODBAOmaDT-116" value="Tipo" style="text;html=1;align=center;verticalAlign=middle;resizable=0;points=[];autosize=1;strokeColor=none;fillColor=none;fontSize=15;fontFamily=Helvetica;labelBackgroundColor=none;rounded=1;fontColor=#143642;" parent="1" vertex="1">
          <mxGeometry x="279" y="140" width="50" height="30" as="geometry" />
        </mxCell>
        <mxCell id="dbW0tiwBnDfh5LcL50jE-3" style="edgeStyle=orthogonalEdgeStyle;rounded=1;orthogonalLoop=1;jettySize=auto;html=1;exitX=1;exitY=0.5;exitDx=0;exitDy=0;endArrow=none;endFill=0;labelBackgroundColor=none;fontColor=default;strokeColor=#A8201A;" parent="1" source="9Mot5vRxFBjQDdBxqjVs-2" target="2ZxViYWchOxOmelXp1Hh-42" edge="1">
          <mxGeometry relative="1" as="geometry" />
        </mxCell>
        <mxCell id="9Mot5vRxFBjQDdBxqjVs-2" value="Contiene" style="rhombus;whiteSpace=wrap;html=1;fontSize=15;labelBackgroundColor=none;rounded=1;fillColor=#FAE5C7;strokeColor=#0F8B8D;fontColor=#143642;" parent="1" vertex="1">
          <mxGeometry x="570" y="799" width="90" height="60" as="geometry" />
        </mxCell>
        <mxCell id="9Mot5vRxFBjQDdBxqjVs-45" style="edgeStyle=none;shape=connector;rounded=1;orthogonalLoop=1;jettySize=auto;html=1;labelBackgroundColor=none;fontFamily=Helvetica;fontSize=15;fontColor=default;endArrow=oval;endFill=0;entryX=0.577;entryY=0.1;entryDx=0;entryDy=0;entryPerimeter=0;exitX=1;exitY=0.75;exitDx=0;exitDy=0;exitPerimeter=0;strokeColor=#A8201A;" parent="1" edge="1">
          <mxGeometry relative="1" as="geometry">
            <mxPoint x="1188.0100000000002" y="1039" as="targetPoint" />
            <mxPoint x="1121.5" y="1026.5" as="sourcePoint" />
          </mxGeometry>
        </mxCell>
        <mxCell id="9Mot5vRxFBjQDdBxqjVs-49" style="edgeStyle=none;shape=connector;rounded=1;orthogonalLoop=1;jettySize=auto;html=1;labelBackgroundColor=none;fontFamily=Helvetica;fontSize=15;fontColor=default;endArrow=oval;endFill=0;exitX=0;exitY=1;exitDx=0;exitDy=0;exitPerimeter=0;strokeColor=#A8201A;" parent="1" source="Dx_CMPOLSW68eJcPcujk-12" target="9Mot5vRxFBjQDdBxqjVs-48" edge="1">
          <mxGeometry relative="1" as="geometry">
            <mxPoint x="990.8000000000002" y="664.8400000000001" as="sourcePoint" />
            <mxPoint x="984" y="621" as="targetPoint" />
          </mxGeometry>
        </mxCell>
        <mxCell id="9Mot5vRxFBjQDdBxqjVs-52" style="edgeStyle=none;shape=connector;rounded=1;orthogonalLoop=1;jettySize=auto;html=1;labelBackgroundColor=none;fontFamily=Helvetica;fontSize=15;fontColor=default;endArrow=oval;endFill=0;exitX=0.116;exitY=-0.037;exitDx=0;exitDy=0;exitPerimeter=0;strokeColor=#A8201A;" parent="1" source="Dx_CMPOLSW68eJcPcujk-12" target="9Mot5vRxFBjQDdBxqjVs-51" edge="1">
          <mxGeometry relative="1" as="geometry">
            <mxPoint x="970" y="1031" as="sourcePoint" />
            <mxPoint x="970.5" y="1101" as="targetPoint" />
          </mxGeometry>
        </mxCell>
        <mxCell id="9Mot5vRxFBjQDdBxqjVs-54" style="edgeStyle=none;shape=connector;rounded=1;orthogonalLoop=1;jettySize=auto;html=1;exitX=0.9;exitY=1.008;exitDx=0;exitDy=0;exitPerimeter=0;labelBackgroundColor=none;fontFamily=Helvetica;fontSize=15;fontColor=default;endArrow=oval;endFill=0;entryX=0.285;entryY=0.078;entryDx=0;entryDy=0;entryPerimeter=0;strokeColor=#A8201A;" parent="1" source="Dx_CMPOLSW68eJcPcujk-12" target="9Mot5vRxFBjQDdBxqjVs-53" edge="1">
          <mxGeometry relative="1" as="geometry">
            <mxPoint x="921" y="704.0000000000002" as="sourcePoint" />
          </mxGeometry>
        </mxCell>
        <mxCell id="9Mot5vRxFBjQDdBxqjVs-10" value="Collocazione" style="text;html=1;align=center;verticalAlign=middle;resizable=0;points=[];autosize=1;strokeColor=none;fillColor=none;fontSize=15;fontFamily=Helvetica;labelBackgroundColor=none;rounded=1;fontColor=#143642;" parent="1" vertex="1">
          <mxGeometry x="177" y="812" width="110" height="30" as="geometry" />
        </mxCell>
        <mxCell id="9Mot5vRxFBjQDdBxqjVs-11" value="Coodinate_GPS" style="text;html=1;align=center;verticalAlign=middle;resizable=0;points=[];autosize=1;strokeColor=none;fillColor=none;fontSize=15;fontFamily=Helvetica;labelBackgroundColor=none;rounded=1;fontColor=#143642;" parent="1" vertex="1">
          <mxGeometry x="269" y="918" width="130" height="30" as="geometry" />
        </mxCell>
        <mxCell id="9Mot5vRxFBjQDdBxqjVs-12" value="Superficie_mq" style="text;html=1;align=center;verticalAlign=middle;resizable=0;points=[];autosize=1;strokeColor=none;fillColor=none;fontSize=15;fontFamily=Helvetica;labelBackgroundColor=none;rounded=1;fontColor=#143642;" parent="1" vertex="1">
          <mxGeometry x="155" y="837" width="120" height="30" as="geometry" />
        </mxCell>
        <mxCell id="9Mot5vRxFBjQDdBxqjVs-48" value="&lt;span style=&quot;font-size: 15px;&quot;&gt;Scopo&lt;br style=&quot;font-size: 15px;&quot;&gt;&lt;/span&gt;" style="text;html=1;align=center;verticalAlign=middle;resizable=0;points=[];autosize=1;strokeColor=none;fillColor=none;fontSize=15;fontFamily=Helvetica;labelBackgroundColor=none;rounded=1;fontColor=#143642;" parent="1" vertex="1">
          <mxGeometry x="891.5" y="1049.5" width="70" height="30" as="geometry" />
        </mxCell>
        <mxCell id="9Mot5vRxFBjQDdBxqjVs-51" value="&lt;span style=&quot;font-size: 15px;&quot;&gt;Mezz&#39;Ombra&lt;br&gt;&lt;/span&gt;" style="text;html=1;align=center;verticalAlign=middle;resizable=0;points=[];autosize=1;strokeColor=none;fillColor=none;fontSize=15;fontFamily=Helvetica;labelBackgroundColor=none;rounded=1;fontColor=#143642;" parent="1" vertex="1">
          <mxGeometry x="825" y="948" width="103" height="30" as="geometry" />
        </mxCell>
        <mxCell id="9Mot5vRxFBjQDdBxqjVs-53" value="Data_Messa_A_Dimora" style="text;html=1;align=center;verticalAlign=middle;resizable=0;points=[];autosize=1;strokeColor=none;fillColor=none;fontSize=15;fontFamily=Helvetica;labelBackgroundColor=none;rounded=1;fontColor=#143642;" parent="1" vertex="1">
          <mxGeometry x="1055" y="1059" width="177" height="30" as="geometry" />
        </mxCell>
        <mxCell id="ZCTQWjX--OK0ONbOPQjy-1" style="edgeStyle=orthogonalEdgeStyle;rounded=1;orthogonalLoop=1;jettySize=auto;html=1;entryX=0;entryY=0.5;entryDx=0;entryDy=0;entryPerimeter=0;fontFamily=Helvetica;fontSize=15;fontColor=default;endArrow=none;endFill=0;labelBackgroundColor=none;exitX=0.5;exitY=0;exitDx=0;exitDy=0;strokeColor=#A8201A;" parent="1" source="9Mot5vRxFBjQDdBxqjVs-57" target="9Mot5vRxFBjQDdBxqjVs-58" edge="1">
          <mxGeometry relative="1" as="geometry">
            <mxPoint x="1251" y="831" as="sourcePoint" />
          </mxGeometry>
        </mxCell>
        <mxCell id="Dx_CMPOLSW68eJcPcujk-14" style="edgeStyle=orthogonalEdgeStyle;rounded=1;orthogonalLoop=1;jettySize=auto;html=1;exitX=0.5;exitY=1;exitDx=0;exitDy=0;entryX=1;entryY=0.5;entryDx=0;entryDy=0;entryPerimeter=0;endArrow=none;endFill=0;labelBackgroundColor=none;strokeColor=#A8201A;fontColor=default;" parent="1" source="9Mot5vRxFBjQDdBxqjVs-57" target="Dx_CMPOLSW68eJcPcujk-12" edge="1">
          <mxGeometry relative="1" as="geometry" />
        </mxCell>
        <mxCell id="9Mot5vRxFBjQDdBxqjVs-57" value="Effettuata" style="rhombus;whiteSpace=wrap;html=1;fontSize=15;labelBackgroundColor=none;rounded=1;fillColor=#FAE5C7;strokeColor=#0F8B8D;fontColor=#143642;" parent="1" vertex="1">
          <mxGeometry x="1111" y="890" width="91.5" height="67" as="geometry" />
        </mxCell>
        <mxCell id="9Mot5vRxFBjQDdBxqjVs-92" style="edgeStyle=none;shape=connector;rounded=1;orthogonalLoop=1;jettySize=auto;html=1;exitX=1;exitY=0.25;exitDx=0;exitDy=0;exitPerimeter=0;labelBackgroundColor=none;fontFamily=Helvetica;fontSize=15;fontColor=default;endArrow=oval;endFill=1;strokeColor=#A8201A;" parent="1" source="9Mot5vRxFBjQDdBxqjVs-103" target="9Mot5vRxFBjQDdBxqjVs-71" edge="1">
          <mxGeometry relative="1" as="geometry">
            <mxPoint x="1285" y="1035" as="sourcePoint" />
            <mxPoint x="1262.5" y="1034.8333333333335" as="targetPoint" />
          </mxGeometry>
        </mxCell>
        <mxCell id="9Mot5vRxFBjQDdBxqjVs-99" style="edgeStyle=none;shape=connector;rounded=1;orthogonalLoop=1;jettySize=auto;html=1;labelBackgroundColor=none;fontFamily=Helvetica;fontSize=15;fontColor=default;endArrow=oval;endFill=0;exitX=0.664;exitY=0.964;exitDx=0;exitDy=0;exitPerimeter=0;strokeColor=#A8201A;" parent="1" source="9Mot5vRxFBjQDdBxqjVs-58" edge="1">
          <mxGeometry relative="1" as="geometry">
            <mxPoint x="1419" y="889" as="targetPoint" />
          </mxGeometry>
        </mxCell>
        <mxCell id="9Mot5vRxFBjQDdBxqjVs-100" style="edgeStyle=none;shape=connector;rounded=1;orthogonalLoop=1;jettySize=auto;html=1;exitX=0.84;exitY=0.875;exitDx=0;exitDy=0;exitPerimeter=0;labelBackgroundColor=none;fontFamily=Helvetica;fontSize=15;fontColor=default;endArrow=oval;endFill=0;entryX=0.014;entryY=0.357;entryDx=0;entryDy=0;entryPerimeter=0;strokeColor=#A8201A;" parent="1" source="9Mot5vRxFBjQDdBxqjVs-58" target="9Mot5vRxFBjQDdBxqjVs-97" edge="1">
          <mxGeometry relative="1" as="geometry" />
        </mxCell>
        <mxCell id="9Mot5vRxFBjQDdBxqjVs-116" style="edgeStyle=none;shape=connector;rounded=1;orthogonalLoop=1;jettySize=auto;html=1;labelBackgroundColor=none;fontFamily=Helvetica;fontSize=15;fontColor=default;endArrow=oval;endFill=0;entryX=0.358;entryY=1.022;entryDx=0;entryDy=0;entryPerimeter=0;strokeColor=#A8201A;" parent="1" target="9Mot5vRxFBjQDdBxqjVs-115" edge="1">
          <mxGeometry relative="1" as="geometry">
            <mxPoint x="1691" y="813.0647160413071" as="targetPoint" />
            <mxPoint x="1360" y="809" as="sourcePoint" />
          </mxGeometry>
        </mxCell>
        <mxCell id="9Mot5vRxFBjQDdBxqjVs-117" style="edgeStyle=none;shape=connector;rounded=1;orthogonalLoop=1;jettySize=auto;html=1;exitX=0.865;exitY=0.1;exitDx=0;exitDy=0;labelBackgroundColor=none;fontFamily=Helvetica;fontSize=15;fontColor=default;endArrow=oval;endFill=0;strokeColor=#A8201A;exitPerimeter=0;" parent="1" source="9Mot5vRxFBjQDdBxqjVs-58" target="9Mot5vRxFBjQDdBxqjVs-114" edge="1">
          <mxGeometry relative="1" as="geometry">
            <mxPoint x="1470" y="689" as="targetPoint" />
            <mxPoint x="1593.9619407771256" y="555.8578643762689" as="sourcePoint" />
          </mxGeometry>
        </mxCell>
        <mxCell id="9Mot5vRxFBjQDdBxqjVs-119" style="edgeStyle=none;shape=connector;rounded=1;orthogonalLoop=1;jettySize=auto;html=1;labelBackgroundColor=none;fontFamily=Helvetica;fontSize=15;fontColor=default;endArrow=oval;endFill=0;strokeColor=#A8201A;exitX=0.574;exitY=0.25;exitDx=0;exitDy=0;exitPerimeter=0;" parent="1" source="9Mot5vRxFBjQDdBxqjVs-58" target="9Mot5vRxFBjQDdBxqjVs-118" edge="1">
          <mxGeometry relative="1" as="geometry">
            <mxPoint x="1525.4856846206376" y="588.7619294828019" as="sourcePoint" />
          </mxGeometry>
        </mxCell>
        <mxCell id="9Mot5vRxFBjQDdBxqjVs-58" value="RILEVAZIONE" style="whiteSpace=wrap;html=1;rounded=1;shadow=0;glass=0;fontSize=15;points=[[0,0,0,0,0],[0,0.25,0,0,0],[0,0.5,0,0,0],[0,0.75,0,0,0],[0,1,0,0,0],[0.25,0,0,0,0],[0.25,1,0,0,0],[0.5,0,0,0,0],[0.5,1,0,0,0],[0.75,0,0,0,0],[0.75,1,0,0,0],[1,0,0,0,0],[1,0.25,0,0,0],[1,0.5,0,0,0],[1,0.75,0,0,0],[1,1,0,0,0]];movable=1;resizable=1;rotatable=1;deletable=1;editable=1;locked=0;connectable=1;labelBackgroundColor=none;fillColor=#FAE5C7;strokeColor=#0F8B8D;fontColor=#143642;" parent="1" vertex="1">
          <mxGeometry x="1271" y="811" width="223" height="40" as="geometry" />
        </mxCell>
        <mxCell id="9Mot5vRxFBjQDdBxqjVs-64" value="&lt;font style=&quot;font-size: 12px;&quot;&gt;Adatto: Sì o No&amp;nbsp;&lt;br&gt;&lt;br&gt;Ruolo:&amp;nbsp; Docente, Dirigente, ...&lt;br&gt;&lt;br&gt;Scopo:&amp;nbsp; Biomonitoraggio o Fitobonifica&lt;br&gt;&lt;br&gt;Tipo_substrato: Terriccio da rinvaso o Suolo pre-esistente&lt;br&gt;&lt;br&gt;Collocazione:&amp;nbsp; in Vaso o per Terra&lt;br&gt;&lt;br&gt;Tipo_Sensore: Scheda_Arduino o Sensore&lt;br&gt;&lt;br&gt;Tipo_Acquisizione:&amp;nbsp; Arduino o App&amp;nbsp;&lt;br&gt;&lt;br&gt;Ruolo: Finanziatore, Dirigente, Docente, Rilevatore Esterno&lt;br&gt;&lt;br&gt;TipoGruppo:&amp;nbsp; Pulito&amp;nbsp; o&amp;nbsp; Inquinato&lt;/font&gt;" style="rounded=1;whiteSpace=wrap;html=1;fontFamily=Helvetica;fontSize=11;labelBackgroundColor=none;fillColor=#FAE5C7;strokeColor=#0F8B8D;fontColor=#143642;" parent="1" vertex="1">
          <mxGeometry x="1235" y="14.5" width="394.38" height="281" as="geometry" />
        </mxCell>
        <mxCell id="9Mot5vRxFBjQDdBxqjVs-66" value="&lt;span style=&quot;font-size: 15px;&quot;&gt;Ph&lt;/span&gt;" style="text;html=1;align=center;verticalAlign=middle;resizable=0;points=[];autosize=1;strokeColor=none;fillColor=none;fontSize=15;fontFamily=Helvetica;labelBackgroundColor=none;rounded=1;fontColor=#143642;" parent="1" vertex="1">
          <mxGeometry x="1408.19" y="749" width="40" height="30" as="geometry" />
        </mxCell>
        <mxCell id="9Mot5vRxFBjQDdBxqjVs-67" value="&lt;span style=&quot;font-size: 15px;&quot;&gt;Umidità&lt;/span&gt;" style="text;html=1;align=center;verticalAlign=middle;resizable=0;points=[];autosize=1;strokeColor=none;fillColor=none;fontSize=15;fontFamily=Helvetica;labelBackgroundColor=none;rounded=1;fontColor=#143642;" parent="1" vertex="1">
          <mxGeometry x="1562" y="769" width="70" height="30" as="geometry" />
        </mxCell>
        <mxCell id="9Mot5vRxFBjQDdBxqjVs-68" value="&lt;span style=&quot;font-size: 15px;&quot;&gt;Temperatura&lt;/span&gt;" style="text;html=1;align=center;verticalAlign=middle;resizable=0;points=[];autosize=1;strokeColor=none;fillColor=none;fontSize=15;fontFamily=Helvetica;labelBackgroundColor=none;rounded=1;fontColor=#143642;" parent="1" vertex="1">
          <mxGeometry x="1522" y="742" width="110" height="30" as="geometry" />
        </mxCell>
        <mxCell id="9Mot5vRxFBjQDdBxqjVs-69" value="&lt;span style=&quot;font-size: 15px;&quot;&gt;Tipo&lt;/span&gt;" style="text;html=1;align=center;verticalAlign=middle;resizable=0;points=[];autosize=1;strokeColor=none;fillColor=none;fontSize=15;fontFamily=Helvetica;labelBackgroundColor=none;rounded=1;fontColor=#143642;" parent="1" vertex="1">
          <mxGeometry x="1429" y="1036" width="50" height="30" as="geometry" />
        </mxCell>
        <mxCell id="9Mot5vRxFBjQDdBxqjVs-71" value="&lt;span style=&quot;font-size: 15px;&quot;&gt;ID&lt;/span&gt;" style="text;html=1;align=center;verticalAlign=middle;resizable=0;points=[];autosize=1;strokeColor=none;fillColor=none;fontSize=15;fontFamily=Helvetica;labelBackgroundColor=none;rounded=1;fontColor=#143642;" parent="1" vertex="1">
          <mxGeometry x="1429" y="1020" width="40" height="30" as="geometry" />
        </mxCell>
        <mxCell id="9Mot5vRxFBjQDdBxqjVs-79" style="edgeStyle=none;shape=connector;rounded=1;orthogonalLoop=1;jettySize=auto;html=1;entryX=0.5;entryY=0;entryDx=0;entryDy=0;entryPerimeter=0;labelBackgroundColor=none;fontFamily=Helvetica;fontSize=15;fontColor=default;endArrow=none;endFill=0;strokeColor=#A8201A;" parent="1" source="9Mot5vRxFBjQDdBxqjVs-78" target="IGpdcPXpx3QODBAOmaDT-12" edge="1">
          <mxGeometry relative="1" as="geometry" />
        </mxCell>
        <mxCell id="9Mot5vRxFBjQDdBxqjVs-78" value="Rappresentata" style="rhombus;whiteSpace=wrap;html=1;rounded=1;shadow=0;glass=0;fontSize=15;align=center;verticalAlign=middle;labelBackgroundColor=none;fillColor=#FAE5C7;strokeColor=#0F8B8D;fontColor=#143642;" parent="1" vertex="1">
          <mxGeometry x="1063.5" y="210" width="160" height="60" as="geometry" />
        </mxCell>
        <mxCell id="9Mot5vRxFBjQDdBxqjVs-94" style="edgeStyle=none;shape=connector;rounded=1;orthogonalLoop=1;jettySize=auto;html=1;exitX=0.709;exitY=0.125;exitDx=0;exitDy=0;labelBackgroundColor=none;fontFamily=Helvetica;fontSize=15;fontColor=default;endArrow=oval;endFill=0;strokeColor=#A8201A;exitPerimeter=0;" parent="1" edge="1">
          <mxGeometry relative="1" as="geometry">
            <mxPoint x="1428.4545192307692" y="774" as="targetPoint" />
            <mxPoint x="1429.107" y="811" as="sourcePoint" />
          </mxGeometry>
        </mxCell>
        <mxCell id="9Mot5vRxFBjQDdBxqjVs-95" style="edgeStyle=none;shape=connector;rounded=1;orthogonalLoop=1;jettySize=auto;html=1;labelBackgroundColor=none;fontFamily=Helvetica;fontSize=15;fontColor=default;endArrow=oval;endFill=0;exitX=1;exitY=0.25;exitDx=0;exitDy=0;exitPerimeter=0;strokeColor=#A8201A;" parent="1" source="9Mot5vRxFBjQDdBxqjVs-58" target="9Mot5vRxFBjQDdBxqjVs-67" edge="1">
          <mxGeometry relative="1" as="geometry">
            <mxPoint x="1606.378632938644" y="793" as="targetPoint" />
            <mxPoint x="1080.12" y="704.7" as="sourcePoint" />
          </mxGeometry>
        </mxCell>
        <mxCell id="9Mot5vRxFBjQDdBxqjVs-96" style="edgeStyle=none;shape=connector;rounded=1;orthogonalLoop=1;jettySize=auto;html=1;exitX=0.942;exitY=0;exitDx=0;exitDy=0;labelBackgroundColor=none;fontFamily=Helvetica;fontSize=15;fontColor=default;endArrow=oval;endFill=0;exitPerimeter=0;strokeColor=#A8201A;" parent="1" source="9Mot5vRxFBjQDdBxqjVs-58" target="9Mot5vRxFBjQDdBxqjVs-68" edge="1">
          <mxGeometry relative="1" as="geometry">
            <mxPoint x="1514.9636075949365" y="688" as="targetPoint" />
            <mxPoint x="1027.9899999999998" y="708.95" as="sourcePoint" />
          </mxGeometry>
        </mxCell>
        <mxCell id="evEw9KSfcbFm4l8Vjmlg-28" style="edgeStyle=orthogonalEdgeStyle;rounded=0;orthogonalLoop=1;jettySize=auto;html=1;exitX=0.5;exitY=1;exitDx=0;exitDy=0;strokeColor=#A8201A;fontColor=#143642;fillColor=#FAE5C7;entryX=0.25;entryY=0;entryDx=0;entryDy=0;entryPerimeter=0;endArrow=none;endFill=0;" parent="1" source="9Mot5vRxFBjQDdBxqjVs-86" target="9Mot5vRxFBjQDdBxqjVs-58" edge="1">
          <mxGeometry relative="1" as="geometry">
            <mxPoint x="1386" y="761" as="targetPoint" />
          </mxGeometry>
        </mxCell>
        <mxCell id="9Mot5vRxFBjQDdBxqjVs-86" value="Responsabile" style="rhombus;whiteSpace=wrap;html=1;fontSize=15;labelBackgroundColor=none;rounded=1;fillColor=#FAE5C7;strokeColor=#0F8B8D;fontColor=#143642;" parent="1" vertex="1">
          <mxGeometry x="1257" y="474" width="140" height="54" as="geometry" />
        </mxCell>
        <mxCell id="9Mot5vRxFBjQDdBxqjVs-97" value="&lt;span style=&quot;font-size: 15px;&quot;&gt;DataOra_Inserimento&lt;/span&gt;" style="text;html=1;align=center;verticalAlign=middle;resizable=0;points=[];autosize=1;strokeColor=none;fillColor=none;fontSize=15;fontFamily=Helvetica;labelBackgroundColor=none;rounded=1;fontColor=#143642;" parent="1" vertex="1">
          <mxGeometry x="1456" y="860" width="170" height="30" as="geometry" />
        </mxCell>
        <mxCell id="9Mot5vRxFBjQDdBxqjVs-98" value="&lt;span style=&quot;font-size: 15px;&quot;&gt;DataOra_Rilevazione&lt;/span&gt;" style="text;html=1;align=center;verticalAlign=middle;resizable=0;points=[];autosize=1;strokeColor=none;fillColor=none;fontSize=15;fontFamily=Helvetica;labelBackgroundColor=none;rounded=1;fontColor=#143642;" parent="1" vertex="1">
          <mxGeometry x="1417" y="885" width="170" height="30" as="geometry" />
        </mxCell>
        <mxCell id="9Mot5vRxFBjQDdBxqjVs-105" value="" style="edgeStyle=none;shape=connector;rounded=1;orthogonalLoop=1;jettySize=auto;html=1;labelBackgroundColor=none;fontFamily=Helvetica;fontSize=15;fontColor=default;endArrow=none;endFill=0;strokeColor=#A8201A;" parent="1" source="9Mot5vRxFBjQDdBxqjVs-103" target="9Mot5vRxFBjQDdBxqjVs-104" edge="1">
          <mxGeometry relative="1" as="geometry" />
        </mxCell>
        <mxCell id="9Mot5vRxFBjQDdBxqjVs-108" style="edgeStyle=none;shape=connector;rounded=1;orthogonalLoop=1;jettySize=auto;html=1;exitX=-0.003;exitY=0.858;exitDx=0;exitDy=0;exitPerimeter=0;labelBackgroundColor=none;fontFamily=Helvetica;fontSize=15;fontColor=default;endArrow=oval;endFill=0;strokeColor=#A8201A;" parent="1" source="9Mot5vRxFBjQDdBxqjVs-103" target="9Mot5vRxFBjQDdBxqjVs-107" edge="1">
          <mxGeometry relative="1" as="geometry">
            <mxPoint x="1268" y="1066.1251441753177" as="targetPoint" />
          </mxGeometry>
        </mxCell>
        <mxCell id="9Mot5vRxFBjQDdBxqjVs-126" style="edgeStyle=none;shape=connector;rounded=1;orthogonalLoop=1;jettySize=auto;html=1;exitX=0;exitY=0.5;exitDx=0;exitDy=0;exitPerimeter=0;labelBackgroundColor=none;fontFamily=Helvetica;fontSize=15;fontColor=default;endArrow=oval;endFill=0;strokeColor=#A8201A;" parent="1" source="9Mot5vRxFBjQDdBxqjVs-103" target="9Mot5vRxFBjQDdBxqjVs-69" edge="1">
          <mxGeometry relative="1" as="geometry">
            <mxPoint x="1266" y="1050.759493670886" as="targetPoint" />
          </mxGeometry>
        </mxCell>
        <mxCell id="9Mot5vRxFBjQDdBxqjVs-103" value="SENSORE" style="whiteSpace=wrap;html=1;rounded=1;shadow=0;glass=0;fontSize=15;points=[[0,0,0,0,0],[0,0.25,0,0,0],[0,0.5,0,0,0],[0,0.75,0,0,0],[0,1,0,0,0],[0.25,0,0,0,0],[0.25,1,0,0,0],[0.5,0,0,0,0],[0.5,1,0,0,0],[0.75,0,0,0,0],[0.75,1,0,0,0],[1,0,0,0,0],[1,0.25,0,0,0],[1,0.5,0,0,0],[1,0.75,0,0,0],[1,1,0,0,0]];movable=1;resizable=1;rotatable=1;deletable=1;editable=1;locked=0;connectable=1;labelBackgroundColor=none;fillColor=#FAE5C7;strokeColor=#0F8B8D;fontColor=#143642;" parent="1" vertex="1">
          <mxGeometry x="1285" y="1031" width="100" height="40" as="geometry" />
        </mxCell>
        <mxCell id="evEw9KSfcbFm4l8Vjmlg-27" style="edgeStyle=orthogonalEdgeStyle;rounded=0;orthogonalLoop=1;jettySize=auto;html=1;exitX=0.5;exitY=0;exitDx=0;exitDy=0;entryX=0.287;entryY=1.05;entryDx=0;entryDy=0;entryPerimeter=0;strokeColor=#A8201A;fontColor=#143642;fillColor=#FAE5C7;endArrow=none;endFill=0;" parent="1" source="9Mot5vRxFBjQDdBxqjVs-104" target="9Mot5vRxFBjQDdBxqjVs-58" edge="1">
          <mxGeometry relative="1" as="geometry" />
        </mxCell>
        <mxCell id="9Mot5vRxFBjQDdBxqjVs-104" value="Rilevata" style="rhombus;whiteSpace=wrap;html=1;rounded=1;shadow=0;glass=0;fontSize=15;align=center;labelBackgroundColor=none;fillColor=#FAE5C7;strokeColor=#0F8B8D;fontColor=#143642;" parent="1" vertex="1">
          <mxGeometry x="1285" y="913" width="100" height="82" as="geometry" />
        </mxCell>
        <mxCell id="9Mot5vRxFBjQDdBxqjVs-107" value="&lt;span style=&quot;font-size: 15px;&quot;&gt;Acquisizione&lt;br&gt;&lt;/span&gt;" style="text;html=1;align=center;verticalAlign=middle;resizable=0;points=[];autosize=1;strokeColor=none;fillColor=none;fontSize=15;fontFamily=Helvetica;labelBackgroundColor=none;rounded=1;fontColor=#143642;" parent="1" vertex="1">
          <mxGeometry x="1429" y="1049.5" width="110" height="30" as="geometry" />
        </mxCell>
        <mxCell id="9Mot5vRxFBjQDdBxqjVs-112" style="edgeStyle=none;rounded=1;orthogonalLoop=1;jettySize=auto;html=1;endArrow=oval;endFill=1;labelBackgroundColor=none;fontFamily=Helvetica;fontSize=15;fontColor=default;shape=connector;strokeColor=#A8201A;" parent="1" edge="1">
          <mxGeometry relative="1" as="geometry">
            <mxPoint x="279" y="220" as="targetPoint" />
            <mxPoint x="284" y="483" as="sourcePoint" />
          </mxGeometry>
        </mxCell>
        <mxCell id="9Mot5vRxFBjQDdBxqjVs-114" value="&lt;span style=&quot;font-size: 15px;&quot;&gt;Biomassa&lt;/span&gt;" style="text;html=1;align=center;verticalAlign=middle;resizable=0;points=[];autosize=1;strokeColor=none;fillColor=none;fontSize=15;fontFamily=Helvetica;labelBackgroundColor=none;rounded=1;fontColor=#143642;" parent="1" vertex="1">
          <mxGeometry x="1419" y="725" width="90" height="30" as="geometry" />
        </mxCell>
        <mxCell id="9Mot5vRxFBjQDdBxqjVs-115" value="&lt;span style=&quot;font-size: 15px;&quot;&gt;Fruttificazione&lt;/span&gt;" style="text;html=1;align=center;verticalAlign=middle;resizable=0;points=[];autosize=1;strokeColor=none;fillColor=none;fontSize=15;fontFamily=Helvetica;labelBackgroundColor=none;rounded=1;fontColor=#143642;" parent="1" vertex="1">
          <mxGeometry x="1317" y="695" width="120" height="30" as="geometry" />
        </mxCell>
        <mxCell id="9Mot5vRxFBjQDdBxqjVs-118" value="&lt;span style=&quot;font-size: 15px;&quot;&gt;Danni&lt;/span&gt;" style="text;html=1;align=center;verticalAlign=middle;resizable=0;points=[];autosize=1;strokeColor=none;fillColor=none;fontSize=15;fontFamily=Helvetica;labelBackgroundColor=none;rounded=1;fontColor=#143642;" parent="1" vertex="1">
          <mxGeometry x="1369" y="724" width="60" height="30" as="geometry" />
        </mxCell>
        <mxCell id="9Mot5vRxFBjQDdBxqjVs-129" style="edgeStyle=none;shape=connector;rounded=1;orthogonalLoop=1;jettySize=auto;html=1;exitX=1;exitY=0.5;exitDx=0;exitDy=0;labelBackgroundColor=none;fontFamily=Helvetica;fontSize=15;fontColor=default;endArrow=oval;endFill=0;strokeColor=#A8201A;exitPerimeter=0;" parent="1" source="9Mot5vRxFBjQDdBxqjVs-58" target="9Mot5vRxFBjQDdBxqjVs-128" edge="1">
          <mxGeometry relative="1" as="geometry">
            <mxPoint x="1613" y="570" as="sourcePoint" />
          </mxGeometry>
        </mxCell>
        <mxCell id="2ZxViYWchOxOmelXp1Hh-69" style="edgeStyle=none;shape=connector;rounded=1;orthogonalLoop=1;jettySize=auto;html=1;exitX=1;exitY=0.75;exitDx=0;exitDy=0;labelBackgroundColor=none;fontFamily=Helvetica;fontSize=15;fontColor=default;endArrow=oval;endFill=0;strokeColor=#A8201A;exitPerimeter=0;" parent="1" target="2ZxViYWchOxOmelXp1Hh-68" edge="1">
          <mxGeometry relative="1" as="geometry">
            <mxPoint x="1554.12" y="835.01" as="targetPoint" />
            <mxPoint x="1494" y="838" as="sourcePoint" />
          </mxGeometry>
        </mxCell>
        <mxCell id="9Mot5vRxFBjQDdBxqjVs-128" value="&lt;span style=&quot;font-size: 15px;&quot;&gt;Fioritura&lt;/span&gt;" style="text;html=1;align=center;verticalAlign=middle;resizable=0;points=[];autosize=1;strokeColor=none;fillColor=none;fontSize=15;fontFamily=Helvetica;labelBackgroundColor=none;rounded=1;fontColor=#143642;" parent="1" vertex="1">
          <mxGeometry x="1557" y="799" width="80" height="30" as="geometry" />
        </mxCell>
        <mxCell id="iRo1wgiCZQPVExe6vW5H-3" value="Substrato" style="text;html=1;align=center;verticalAlign=middle;resizable=0;points=[];autosize=1;strokeColor=none;fillColor=none;fontSize=15;fontFamily=Helvetica;labelBackgroundColor=none;rounded=1;fontColor=#143642;" parent="1" vertex="1">
          <mxGeometry x="758" y="756" width="90" height="30" as="geometry" />
        </mxCell>
        <mxCell id="2ZxViYWchOxOmelXp1Hh-1" value="1,N" style="text;html=1;align=center;verticalAlign=middle;resizable=0;points=[];autosize=1;strokeColor=none;fillColor=none;labelBackgroundColor=none;rounded=1;fontColor=#143642;" parent="1" vertex="1">
          <mxGeometry x="486.5" y="471" width="40" height="30" as="geometry" />
        </mxCell>
        <mxCell id="2ZxViYWchOxOmelXp1Hh-2" value="0,N" style="text;html=1;align=center;verticalAlign=middle;resizable=0;points=[];autosize=1;strokeColor=none;fillColor=none;labelBackgroundColor=none;rounded=1;fontColor=#143642;" parent="1" vertex="1">
          <mxGeometry x="1054" y="475" width="40" height="30" as="geometry" />
        </mxCell>
        <mxCell id="2ZxViYWchOxOmelXp1Hh-3" value="0,1" style="text;html=1;align=center;verticalAlign=middle;resizable=0;points=[];autosize=1;strokeColor=none;fillColor=none;labelBackgroundColor=none;rounded=1;fontColor=#143642;" parent="1" vertex="1">
          <mxGeometry x="1139" y="454" width="40" height="30" as="geometry" />
        </mxCell>
        <mxCell id="2ZxViYWchOxOmelXp1Hh-4" value="1,1" style="text;html=1;align=center;verticalAlign=middle;resizable=0;points=[];autosize=1;strokeColor=none;fillColor=none;labelBackgroundColor=none;rounded=1;fontColor=#143642;" parent="1" vertex="1">
          <mxGeometry x="423.5" y="214" width="40" height="30" as="geometry" />
        </mxCell>
        <mxCell id="2ZxViYWchOxOmelXp1Hh-6" value="1,N" style="text;html=1;align=center;verticalAlign=middle;resizable=0;points=[];autosize=1;strokeColor=none;fillColor=none;labelBackgroundColor=none;rounded=1;fontColor=#143642;" parent="1" vertex="1">
          <mxGeometry x="364" y="450" width="40" height="30" as="geometry" />
        </mxCell>
        <mxCell id="2ZxViYWchOxOmelXp1Hh-7" value="1,N" style="text;html=1;align=center;verticalAlign=middle;resizable=0;points=[];autosize=1;strokeColor=none;fillColor=none;labelBackgroundColor=none;rounded=1;fontColor=#143642;" parent="1" vertex="1">
          <mxGeometry x="406.5" y="521" width="40" height="30" as="geometry" />
        </mxCell>
        <mxCell id="2ZxViYWchOxOmelXp1Hh-8" value="1,1" style="text;html=1;align=center;verticalAlign=middle;resizable=0;points=[];autosize=1;strokeColor=none;fillColor=none;labelBackgroundColor=none;rounded=1;fontColor=#143642;" parent="1" vertex="1">
          <mxGeometry x="413.5" y="786" width="40" height="30" as="geometry" />
        </mxCell>
        <mxCell id="2ZxViYWchOxOmelXp1Hh-11" style="edgeStyle=orthogonalEdgeStyle;rounded=1;orthogonalLoop=1;jettySize=auto;html=1;exitX=0.5;exitY=1;exitDx=0;exitDy=0;endArrow=none;endFill=0;labelBackgroundColor=none;fontColor=default;strokeColor=#A8201A;" parent="1" source="2ZxViYWchOxOmelXp1Hh-9" target="IGpdcPXpx3QODBAOmaDT-103" edge="1">
          <mxGeometry relative="1" as="geometry">
            <Array as="points">
              <mxPoint x="370" y="780" />
              <mxPoint x="370" y="780" />
            </Array>
          </mxGeometry>
        </mxCell>
        <mxCell id="2ZxViYWchOxOmelXp1Hh-9" value="Utilizza" style="rhombus;whiteSpace=wrap;html=1;fontFamily=Helvetica;fontSize=15;labelBackgroundColor=none;rounded=1;fillColor=#FAE5C7;strokeColor=#0F8B8D;fontColor=#143642;" parent="1" vertex="1">
          <mxGeometry x="326" y="590" width="87.5" height="70" as="geometry" />
        </mxCell>
        <mxCell id="2ZxViYWchOxOmelXp1Hh-12" value="0,N" style="text;html=1;align=center;verticalAlign=middle;resizable=0;points=[];autosize=1;strokeColor=none;fillColor=none;labelBackgroundColor=none;rounded=1;fontColor=#143642;" parent="1" vertex="1">
          <mxGeometry x="364" y="786" width="40" height="30" as="geometry" />
        </mxCell>
        <mxCell id="2ZxViYWchOxOmelXp1Hh-13" value="1,N" style="text;html=1;align=center;verticalAlign=middle;resizable=0;points=[];autosize=1;strokeColor=none;fillColor=none;labelBackgroundColor=none;rounded=1;fontColor=#143642;" parent="1" vertex="1">
          <mxGeometry x="364" y="520" width="40" height="30" as="geometry" />
        </mxCell>
        <mxCell id="2ZxViYWchOxOmelXp1Hh-24" style="edgeStyle=orthogonalEdgeStyle;rounded=1;orthogonalLoop=1;jettySize=auto;html=1;exitX=1;exitY=0.5;exitDx=0;exitDy=0;exitPerimeter=0;entryX=0;entryY=0.5;entryDx=0;entryDy=0;endArrow=none;endFill=0;labelBackgroundColor=none;fontColor=default;strokeColor=#A8201A;" parent="1" source="2ZxViYWchOxOmelXp1Hh-18" target="IGpdcPXpx3QODBAOmaDT-10" edge="1">
          <mxGeometry relative="1" as="geometry" />
        </mxCell>
        <mxCell id="2ZxViYWchOxOmelXp1Hh-28" style="edgeStyle=orthogonalEdgeStyle;rounded=1;orthogonalLoop=1;jettySize=auto;html=1;exitX=0;exitY=0.5;exitDx=0;exitDy=0;exitPerimeter=0;entryX=1;entryY=0.5;entryDx=0;entryDy=0;endArrow=none;endFill=0;labelBackgroundColor=none;fontColor=default;strokeColor=#A8201A;" parent="1" source="2ZxViYWchOxOmelXp1Hh-18" target="2ZxViYWchOxOmelXp1Hh-27" edge="1">
          <mxGeometry relative="1" as="geometry" />
        </mxCell>
        <mxCell id="2ZxViYWchOxOmelXp1Hh-33" style="edgeStyle=orthogonalEdgeStyle;rounded=1;orthogonalLoop=1;jettySize=auto;html=1;exitX=0;exitY=0;exitDx=0;exitDy=0;exitPerimeter=0;entryX=0.46;entryY=1.092;entryDx=0;entryDy=0;entryPerimeter=0;endArrow=oval;endFill=1;labelBackgroundColor=none;fontColor=default;strokeColor=#A8201A;" parent="1" edge="1">
          <mxGeometry relative="1" as="geometry">
            <mxPoint x="772.0000000000002" y="480" as="sourcePoint" />
            <mxPoint x="764.8999999999999" y="452.76" as="targetPoint" />
          </mxGeometry>
        </mxCell>
        <mxCell id="2ZxViYWchOxOmelXp1Hh-36" style="edgeStyle=orthogonalEdgeStyle;rounded=1;orthogonalLoop=1;jettySize=auto;html=1;exitX=1;exitY=0;exitDx=0;exitDy=0;exitPerimeter=0;endArrow=oval;endFill=0;labelBackgroundColor=none;fontColor=default;strokeColor=#A8201A;" parent="1" target="hBhSmYuqApCjBbth0nBB-10" edge="1">
          <mxGeometry relative="1" as="geometry">
            <mxPoint x="879.5" y="480" as="sourcePoint" />
            <mxPoint x="880.5500000000002" y="451.53" as="targetPoint" />
          </mxGeometry>
        </mxCell>
        <mxCell id="hBhSmYuqApCjBbth0nBB-9" style="edgeStyle=orthogonalEdgeStyle;rounded=0;orthogonalLoop=1;jettySize=auto;html=1;exitX=0.5;exitY=0;exitDx=0;exitDy=0;exitPerimeter=0;entryX=0.512;entryY=0.843;entryDx=0;entryDy=0;entryPerimeter=0;strokeColor=#A8201A;fontColor=default;fillColor=#FAE5C7;endArrow=oval;endFill=0;labelBackgroundColor=none;" parent="1" source="2ZxViYWchOxOmelXp1Hh-18" target="2ZxViYWchOxOmelXp1Hh-21" edge="1">
          <mxGeometry relative="1" as="geometry">
            <Array as="points" />
          </mxGeometry>
        </mxCell>
        <mxCell id="2ZxViYWchOxOmelXp1Hh-18" value="PROGETTO" style="rounded=1;whiteSpace=wrap;html=1;shadow=0;glass=0;points=[[0,0,0,0,0],[0,0.25,0,0,0],[0,0.5,0,0,0],[0,0.75,0,0,0],[0,1,0,0,0],[0.25,0,0,0,0],[0.25,1,0,0,0],[0.5,0,0,0,0],[0.5,1,0,0,0],[0.75,0,0,0,0],[0.75,1,0,0,0],[1,0,0,0,0],[1,0.25,0,0,0],[1,0.5,0,0,0],[1,0.75,0,0,0],[1,1,0,0,0]];fontSize=15;labelBackgroundColor=none;fillColor=#FAE5C7;strokeColor=#0F8B8D;fontColor=#143642;" parent="1" vertex="1">
          <mxGeometry x="760" y="480" width="130.5" height="40" as="geometry" />
        </mxCell>
        <mxCell id="2ZxViYWchOxOmelXp1Hh-21" value="Finanziamento" style="text;html=1;align=center;verticalAlign=middle;resizable=0;points=[];autosize=1;strokeColor=none;fillColor=none;fontSize=14;labelBackgroundColor=none;rounded=1;fontColor=#143642;" parent="1" vertex="1">
          <mxGeometry x="769" y="390" width="110" height="29" as="geometry" />
        </mxCell>
        <mxCell id="2ZxViYWchOxOmelXp1Hh-23" value="ID" style="text;html=1;align=center;verticalAlign=middle;resizable=0;points=[];autosize=1;strokeColor=none;fillColor=none;fontSize=14;labelBackgroundColor=none;rounded=1;fontColor=#143642;" parent="1" vertex="1">
          <mxGeometry x="748" y="419" width="40" height="30" as="geometry" />
        </mxCell>
        <mxCell id="2ZxViYWchOxOmelXp1Hh-26" value="Afferisce" style="rhombus;whiteSpace=wrap;html=1;fontFamily=Helvetica;fontSize=15;align=center;verticalAlign=middle;labelBackgroundColor=none;rounded=1;fillColor=#FAE5C7;strokeColor=#0F8B8D;fontColor=#143642;" parent="1" vertex="1">
          <mxGeometry x="308.5" y="318" width="120" height="71" as="geometry" />
        </mxCell>
        <mxCell id="2ZxViYWchOxOmelXp1Hh-30" style="edgeStyle=orthogonalEdgeStyle;rounded=1;orthogonalLoop=1;jettySize=auto;html=1;exitX=0;exitY=0.5;exitDx=0;exitDy=0;entryX=1;entryY=0.5;entryDx=0;entryDy=0;entryPerimeter=0;endArrow=none;endFill=0;labelBackgroundColor=none;fontColor=default;strokeColor=#A8201A;" parent="1" source="2ZxViYWchOxOmelXp1Hh-27" target="IGpdcPXpx3QODBAOmaDT-8" edge="1">
          <mxGeometry relative="1" as="geometry" />
        </mxCell>
        <mxCell id="2ZxViYWchOxOmelXp1Hh-27" value="Iscritta" style="rhombus;whiteSpace=wrap;html=1;fontFamily=Helvetica;fontSize=15;align=center;verticalAlign=middle;labelBackgroundColor=none;rounded=1;fillColor=#FAE5C7;strokeColor=#0F8B8D;fontColor=#143642;" parent="1" vertex="1">
          <mxGeometry x="550" y="475" width="140" height="50" as="geometry" />
        </mxCell>
        <mxCell id="2ZxViYWchOxOmelXp1Hh-38" value="1,N" style="text;html=1;align=center;verticalAlign=middle;resizable=0;points=[];autosize=1;strokeColor=none;fillColor=none;labelBackgroundColor=none;rounded=1;fontColor=#143642;" parent="1" vertex="1">
          <mxGeometry x="703.5" y="471" width="40" height="30" as="geometry" />
        </mxCell>
        <mxCell id="2ZxViYWchOxOmelXp1Hh-39" value="1,N" style="text;html=1;align=center;verticalAlign=middle;resizable=0;points=[];autosize=1;strokeColor=none;fillColor=none;labelBackgroundColor=none;rounded=1;fontColor=#143642;" parent="1" vertex="1">
          <mxGeometry x="890" y="474" width="40" height="30" as="geometry" />
        </mxCell>
        <mxCell id="dbW0tiwBnDfh5LcL50jE-21" style="edgeStyle=none;shape=connector;rounded=1;orthogonalLoop=1;jettySize=auto;html=1;labelBackgroundColor=none;fontFamily=Helvetica;fontSize=15;fontColor=default;endArrow=oval;endFill=0;strokeColor=#A8201A;entryX=0.6;entryY=0.933;entryDx=0;entryDy=0;entryPerimeter=0;" parent="1" edge="1" target="iRo1wgiCZQPVExe6vW5H-3">
          <mxGeometry relative="1" as="geometry">
            <mxPoint x="812" y="813" as="sourcePoint" />
            <mxPoint x="749.335164835165" y="880.5" as="targetPoint" />
          </mxGeometry>
        </mxCell>
        <mxCell id="Dx_CMPOLSW68eJcPcujk-20" style="edgeStyle=orthogonalEdgeStyle;rounded=1;orthogonalLoop=1;jettySize=auto;html=1;exitX=1;exitY=0.75;exitDx=0;exitDy=0;exitPerimeter=0;endArrow=none;endFill=0;labelBackgroundColor=none;strokeColor=#A8201A;fontColor=default;" parent="1" source="2ZxViYWchOxOmelXp1Hh-42" target="Dx_CMPOLSW68eJcPcujk-19" edge="1">
          <mxGeometry relative="1" as="geometry">
            <mxPoint x="1040" y="840" as="targetPoint" />
          </mxGeometry>
        </mxCell>
        <mxCell id="2ZxViYWchOxOmelXp1Hh-42" value="SPECIE" style="rounded=1;whiteSpace=wrap;html=1;shadow=0;glass=0;points=[[0,0,0,0,0],[0,0.25,0,0,0],[0,0.5,0,0,0],[0,0.75,0,0,0],[0,1,0,0,0],[0.25,0,0,0,0],[0.25,1,0,0,0],[0.5,0,0,0,0],[0.5,1,0,0,0],[0.75,0,0,0,0],[0.75,1,0,0,0],[1,0,0,0,0],[1,0.25,0,0,0],[1,0.5,0,0,0],[1,0.75,0,0,0],[1,1,0,0,0]];fontSize=15;labelBackgroundColor=none;fillColor=#FAE5C7;strokeColor=#0F8B8D;fontColor=#143642;" parent="1" vertex="1">
          <mxGeometry x="720" y="809" width="160" height="40" as="geometry" />
        </mxCell>
        <mxCell id="2ZxViYWchOxOmelXp1Hh-50" value="Nome_Scientifico" style="text;html=1;align=center;verticalAlign=middle;resizable=0;points=[];autosize=1;strokeColor=none;fillColor=none;fontSize=15;fontFamily=Helvetica;labelBackgroundColor=none;rounded=1;fontColor=#143642;" parent="1" vertex="1">
          <mxGeometry x="690" y="729" width="140" height="30" as="geometry" />
        </mxCell>
        <mxCell id="2ZxViYWchOxOmelXp1Hh-51" value="Nome_Comune" style="text;html=1;align=center;verticalAlign=middle;resizable=0;points=[];autosize=1;strokeColor=none;fillColor=none;fontSize=15;fontFamily=Helvetica;labelBackgroundColor=none;rounded=1;fontColor=#143642;" parent="1" vertex="1">
          <mxGeometry x="1132" y="1035" width="130" height="30" as="geometry" />
        </mxCell>
        <mxCell id="2ZxViYWchOxOmelXp1Hh-57" style="edgeStyle=none;shape=connector;rounded=1;orthogonalLoop=1;jettySize=auto;html=1;exitX=0.5;exitY=1;exitDx=0;exitDy=0;labelBackgroundColor=none;fontFamily=Helvetica;fontSize=15;fontColor=default;endArrow=oval;endFill=0;strokeColor=#A8201A;" parent="1" source="9Mot5vRxFBjQDdBxqjVs-104" target="9Mot5vRxFBjQDdBxqjVs-104" edge="1">
          <mxGeometry relative="1" as="geometry" />
        </mxCell>
        <mxCell id="2ZxViYWchOxOmelXp1Hh-70" style="edgeStyle=none;shape=connector;rounded=1;orthogonalLoop=1;jettySize=auto;html=1;exitX=1;exitY=0.75;exitDx=0;exitDy=0;exitPerimeter=0;labelBackgroundColor=none;fontFamily=Helvetica;fontSize=15;fontColor=default;endArrow=oval;endFill=0;strokeColor=#A8201A;" parent="1" source="2ZxViYWchOxOmelXp1Hh-59" target="2ZxViYWchOxOmelXp1Hh-71" edge="1">
          <mxGeometry relative="1" as="geometry">
            <mxPoint x="512.5" y="1042.5" as="targetPoint" />
          </mxGeometry>
        </mxCell>
        <mxCell id="2ZxViYWchOxOmelXp1Hh-59" value="GRUPPO" style="whiteSpace=wrap;html=1;rounded=1;shadow=0;glass=0;fontSize=15;points=[[0,0,0,0,0],[0,0.25,0,0,0],[0,0.5,0,0,0],[0,0.75,0,0,0],[0,1,0,0,0],[0.25,0,0,0,0],[0.25,1,0,0,0],[0.5,0,0,0,0],[0.5,1,0,0,0],[0.75,0,0,0,0],[0.75,1,0,0,0],[1,0,0,0,0],[1,0.25,0,0,0],[1,0.5,0,0,0],[1,0.75,0,0,0],[1,1,0,0,0]];movable=1;resizable=1;rotatable=1;deletable=1;editable=1;locked=0;connectable=1;labelBackgroundColor=none;fillColor=#FAE5C7;strokeColor=#0F8B8D;fontColor=#143642;" parent="1" vertex="1">
          <mxGeometry x="1182.5" y="1106" width="100" height="40" as="geometry" />
        </mxCell>
        <mxCell id="Dx_CMPOLSW68eJcPcujk-26" style="edgeStyle=orthogonalEdgeStyle;rounded=1;orthogonalLoop=1;jettySize=auto;html=1;exitX=1;exitY=0.5;exitDx=0;exitDy=0;endArrow=none;endFill=0;labelBackgroundColor=none;strokeColor=#A8201A;fontColor=default;" parent="1" source="2ZxViYWchOxOmelXp1Hh-60" target="2ZxViYWchOxOmelXp1Hh-59" edge="1">
          <mxGeometry relative="1" as="geometry" />
        </mxCell>
        <mxCell id="2ZxViYWchOxOmelXp1Hh-60" value="Contenuta" style="rhombus;whiteSpace=wrap;html=1;fontSize=15;labelBackgroundColor=none;rounded=1;fillColor=#FAE5C7;strokeColor=#0F8B8D;fontColor=#143642;" parent="1" vertex="1">
          <mxGeometry x="991.5" y="1102" width="100" height="46.5" as="geometry" />
        </mxCell>
        <mxCell id="2ZxViYWchOxOmelXp1Hh-64" value="ID" style="text;html=1;align=center;verticalAlign=middle;resizable=0;points=[];autosize=1;strokeColor=none;fillColor=none;fontSize=15;fontFamily=Helvetica;labelBackgroundColor=none;rounded=1;fontColor=#143642;" parent="1" vertex="1">
          <mxGeometry x="1311.5" y="1101" width="40" height="30" as="geometry" />
        </mxCell>
        <mxCell id="2ZxViYWchOxOmelXp1Hh-65" style="edgeStyle=none;shape=connector;rounded=1;orthogonalLoop=1;jettySize=auto;html=1;labelBackgroundColor=none;fontFamily=Helvetica;fontSize=15;fontColor=default;endArrow=oval;endFill=1;exitX=1;exitY=0.25;exitDx=0;exitDy=0;exitPerimeter=0;strokeColor=#A8201A;" parent="1" source="2ZxViYWchOxOmelXp1Hh-59" target="2ZxViYWchOxOmelXp1Hh-64" edge="1">
          <mxGeometry relative="1" as="geometry">
            <mxPoint x="576.5" y="1152.5" as="sourcePoint" />
            <mxPoint x="316.5" y="1152.5" as="targetPoint" />
          </mxGeometry>
        </mxCell>
        <mxCell id="2ZxViYWchOxOmelXp1Hh-68" value="&lt;span style=&quot;font-size: 15px;&quot;&gt;Struttura&lt;/span&gt;" style="text;html=1;align=center;verticalAlign=middle;resizable=0;points=[];autosize=1;strokeColor=none;fillColor=none;fontSize=15;fontFamily=Helvetica;labelBackgroundColor=none;rounded=1;fontColor=#143642;" parent="1" vertex="1">
          <mxGeometry x="1555" y="821" width="80" height="30" as="geometry" />
        </mxCell>
        <mxCell id="2ZxViYWchOxOmelXp1Hh-71" value="Tipo" style="text;html=1;align=center;verticalAlign=middle;resizable=0;points=[];autosize=1;strokeColor=none;fillColor=none;fontSize=15;fontFamily=Helvetica;labelBackgroundColor=none;rounded=1;fontColor=#143642;arcSize=0;" parent="1" vertex="1">
          <mxGeometry x="1347.5" y="1121" width="50" height="30" as="geometry" />
        </mxCell>
        <mxCell id="dbW0tiwBnDfh5LcL50jE-4" value="1,N" style="text;html=1;align=center;verticalAlign=middle;resizable=0;points=[];autosize=1;strokeColor=none;fillColor=none;labelBackgroundColor=none;rounded=1;fontColor=#143642;" parent="1" vertex="1">
          <mxGeometry x="680" y="806" width="40" height="30" as="geometry" />
        </mxCell>
        <mxCell id="dbW0tiwBnDfh5LcL50jE-5" value="1,3" style="text;html=1;align=center;verticalAlign=middle;resizable=0;points=[];autosize=1;strokeColor=none;fillColor=none;labelBackgroundColor=none;rounded=1;fontColor=#143642;" parent="1" vertex="1">
          <mxGeometry x="500" y="804" width="40" height="30" as="geometry" />
        </mxCell>
        <mxCell id="dbW0tiwBnDfh5LcL50jE-6" value="1,20" style="text;html=1;align=center;verticalAlign=middle;resizable=0;points=[];autosize=1;strokeColor=none;fillColor=none;labelBackgroundColor=none;rounded=1;fontColor=#143642;" parent="1" vertex="1">
          <mxGeometry x="1131.75" y="1101" width="50" height="30" as="geometry" />
        </mxCell>
        <mxCell id="dbW0tiwBnDfh5LcL50jE-7" value="1,1" style="text;html=1;align=center;verticalAlign=middle;resizable=0;points=[];autosize=1;strokeColor=none;fillColor=none;labelBackgroundColor=none;rounded=1;fontColor=#143642;" parent="1" vertex="1">
          <mxGeometry x="1031.5" y="1030.5" width="40" height="30" as="geometry" />
        </mxCell>
        <mxCell id="dbW0tiwBnDfh5LcL50jE-10" value="1,N" style="text;html=1;align=center;verticalAlign=middle;resizable=0;points=[];autosize=1;strokeColor=none;fillColor=none;labelBackgroundColor=none;rounded=1;fontColor=#143642;" parent="1" vertex="1">
          <mxGeometry x="1236" y="806" width="40" height="30" as="geometry" />
        </mxCell>
        <mxCell id="dbW0tiwBnDfh5LcL50jE-13" value="0,N" style="text;html=1;align=center;verticalAlign=middle;resizable=0;points=[];autosize=1;strokeColor=none;fillColor=none;labelBackgroundColor=none;rounded=1;fontColor=#143642;" parent="1" vertex="1">
          <mxGeometry x="1195" y="475" width="40" height="30" as="geometry" />
        </mxCell>
        <mxCell id="dbW0tiwBnDfh5LcL50jE-14" value="1,1" style="text;html=1;align=center;verticalAlign=middle;resizable=0;points=[];autosize=1;strokeColor=none;fillColor=none;labelBackgroundColor=none;rounded=1;fontColor=#143642;" parent="1" vertex="1">
          <mxGeometry x="1292" y="786" width="40" height="30" as="geometry" />
        </mxCell>
        <mxCell id="dbW0tiwBnDfh5LcL50jE-15" value="1,N" style="text;html=1;align=center;verticalAlign=middle;resizable=0;points=[];autosize=1;strokeColor=none;fillColor=none;labelBackgroundColor=none;rounded=1;fontColor=#143642;" parent="1" vertex="1">
          <mxGeometry x="1301" y="1005" width="40" height="30" as="geometry" />
        </mxCell>
        <mxCell id="dbW0tiwBnDfh5LcL50jE-16" value="1,N" style="text;html=1;align=center;verticalAlign=middle;resizable=0;points=[];autosize=1;strokeColor=none;fillColor=none;labelBackgroundColor=none;rounded=1;fontColor=#143642;" parent="1" vertex="1">
          <mxGeometry x="1301" y="851" width="40" height="30" as="geometry" />
        </mxCell>
        <mxCell id="dbW0tiwBnDfh5LcL50jE-20" style="edgeStyle=none;shape=connector;rounded=1;orthogonalLoop=1;jettySize=auto;html=1;labelBackgroundColor=none;fontFamily=Helvetica;fontSize=15;fontColor=default;endArrow=oval;endFill=1;exitX=0.25;exitY=0;exitDx=0;exitDy=0;exitPerimeter=0;strokeColor=#A8201A;" parent="1" source="2ZxViYWchOxOmelXp1Hh-42" target="2ZxViYWchOxOmelXp1Hh-50" edge="1">
          <mxGeometry relative="1" as="geometry">
            <mxPoint x="733.5" y="794" as="sourcePoint" />
            <mxPoint x="830" y="795" as="targetPoint" />
          </mxGeometry>
        </mxCell>
        <mxCell id="dbW0tiwBnDfh5LcL50jE-26" value="1,N" style="text;html=1;align=center;verticalAlign=middle;resizable=0;points=[];autosize=1;strokeColor=none;fillColor=none;labelBackgroundColor=none;rounded=1;fontColor=#143642;" parent="1" vertex="1">
          <mxGeometry x="880" y="806" width="40" height="30" as="geometry" />
        </mxCell>
        <mxCell id="b7XLntytt7OJGYTTH7YX-2" value="Condizione_Ambientale" style="text;html=1;align=center;verticalAlign=middle;resizable=0;points=[];autosize=1;strokeColor=none;fillColor=none;fontSize=15;fontFamily=Helvetica;labelBackgroundColor=none;rounded=1;fontColor=#143642;" parent="1" vertex="1">
          <mxGeometry x="93" y="788" width="180" height="30" as="geometry" />
        </mxCell>
        <mxCell id="b7XLntytt7OJGYTTH7YX-3" value="Collabora" style="text;html=1;align=center;verticalAlign=middle;resizable=0;points=[];autosize=1;strokeColor=none;fillColor=none;fontSize=15;fontFamily=Helvetica;labelBackgroundColor=none;rounded=1;fontColor=#143642;" parent="1" vertex="1">
          <mxGeometry x="134" y="498" width="90" height="30" as="geometry" />
        </mxCell>
        <mxCell id="b7XLntytt7OJGYTTH7YX-6" value="0,1" style="text;html=1;align=center;verticalAlign=middle;resizable=0;points=[];autosize=1;strokeColor=none;fillColor=none;labelBackgroundColor=none;rounded=1;fontColor=#143642;" parent="1" vertex="1">
          <mxGeometry x="219" y="505.5" width="40" height="30" as="geometry" />
        </mxCell>
        <mxCell id="Dx_CMPOLSW68eJcPcujk-2" style="edgeStyle=orthogonalEdgeStyle;rounded=1;orthogonalLoop=1;jettySize=auto;html=1;exitX=0;exitY=0.5;exitDx=0;exitDy=0;entryX=0.75;entryY=0;entryDx=0;entryDy=0;entryPerimeter=0;endArrow=none;endFill=0;labelBackgroundColor=none;strokeColor=#A8201A;fontColor=default;" parent="1" source="Dx_CMPOLSW68eJcPcujk-1" target="IGpdcPXpx3QODBAOmaDT-8" edge="1">
          <mxGeometry relative="1" as="geometry" />
        </mxCell>
        <mxCell id="Dx_CMPOLSW68eJcPcujk-3" style="edgeStyle=orthogonalEdgeStyle;rounded=1;orthogonalLoop=1;jettySize=auto;html=1;exitX=1;exitY=0.5;exitDx=0;exitDy=0;entryX=0.25;entryY=0;entryDx=0;entryDy=0;entryPerimeter=0;endArrow=none;endFill=0;labelBackgroundColor=none;strokeColor=#A8201A;fontColor=default;" parent="1" source="Dx_CMPOLSW68eJcPcujk-1" target="IGpdcPXpx3QODBAOmaDT-12" edge="1">
          <mxGeometry relative="1" as="geometry" />
        </mxCell>
        <mxCell id="Dx_CMPOLSW68eJcPcujk-1" value="Appartiene" style="rhombus;whiteSpace=wrap;html=1;fontFamily=Helvetica;fontSize=15;align=center;verticalAlign=middle;labelBackgroundColor=none;rounded=1;fillColor=#FAE5C7;strokeColor=#0F8B8D;fontColor=#143642;" parent="1" vertex="1">
          <mxGeometry x="703.5" y="285" width="140" height="71" as="geometry" />
        </mxCell>
        <mxCell id="Dx_CMPOLSW68eJcPcujk-4" style="edgeStyle=orthogonalEdgeStyle;rounded=1;orthogonalLoop=1;jettySize=auto;html=1;exitX=0.5;exitY=1;exitDx=0;exitDy=0;labelBackgroundColor=none;strokeColor=#A8201A;fontColor=default;" parent="1" source="Dx_CMPOLSW68eJcPcujk-1" target="Dx_CMPOLSW68eJcPcujk-1" edge="1">
          <mxGeometry relative="1" as="geometry" />
        </mxCell>
        <mxCell id="Dx_CMPOLSW68eJcPcujk-5" value="1,N" style="text;html=1;align=center;verticalAlign=middle;resizable=0;points=[];autosize=1;strokeColor=none;fillColor=none;labelBackgroundColor=none;rounded=1;fontColor=#143642;" parent="1" vertex="1">
          <mxGeometry x="448.5" y="445" width="40" height="30" as="geometry" />
        </mxCell>
        <mxCell id="Dx_CMPOLSW68eJcPcujk-6" value="0,1" style="text;html=1;align=center;verticalAlign=middle;resizable=0;points=[];autosize=1;strokeColor=none;fillColor=none;labelBackgroundColor=none;rounded=1;fontColor=#143642;" parent="1" vertex="1">
          <mxGeometry x="1081.5" y="449" width="40" height="30" as="geometry" />
        </mxCell>
        <mxCell id="Dx_CMPOLSW68eJcPcujk-11" style="edgeStyle=none;rounded=1;orthogonalLoop=1;jettySize=auto;html=1;endArrow=oval;endFill=1;labelBackgroundColor=none;fontFamily=Helvetica;fontSize=15;fontColor=default;shape=connector;strokeColor=#A8201A;" parent="1" edge="1">
          <mxGeometry relative="1" as="geometry">
            <mxPoint x="382" y="881" as="targetPoint" />
            <mxPoint x="302" y="881" as="sourcePoint" />
          </mxGeometry>
        </mxCell>
        <mxCell id="Dx_CMPOLSW68eJcPcujk-25" style="edgeStyle=orthogonalEdgeStyle;rounded=1;orthogonalLoop=1;jettySize=auto;html=1;exitX=0.5;exitY=1;exitDx=0;exitDy=0;exitPerimeter=0;endArrow=none;endFill=0;labelBackgroundColor=none;strokeColor=#A8201A;fontColor=default;" parent="1" source="Dx_CMPOLSW68eJcPcujk-12" target="2ZxViYWchOxOmelXp1Hh-60" edge="1">
          <mxGeometry relative="1" as="geometry" />
        </mxCell>
        <mxCell id="Dx_CMPOLSW68eJcPcujk-12" value="REPLICA&amp;nbsp; /&amp;nbsp; PIANTA" style="rounded=1;whiteSpace=wrap;html=1;shadow=0;glass=0;points=[[0,0,0,0,0],[0,0.25,0,0,0],[0,0.5,0,0,0],[0,0.75,0,0,0],[0,1,0,0,0],[0.25,0,0,0,0],[0.25,1,0,0,0],[0.5,0,0,0,0],[0.5,1,0,0,0],[0.75,0,0,0,0],[0.75,1,0,0,0],[1,0,0,0,0],[1,0.25,0,0,0],[1,0.5,0,0,0],[1,0.75,0,0,0],[1,1,0,0,0]];fontSize=15;labelBackgroundColor=none;fillColor=#FAE5C7;strokeColor=#0F8B8D;fontColor=#143642;" parent="1" vertex="1">
          <mxGeometry x="961.5" y="1001.5" width="160" height="40" as="geometry" />
        </mxCell>
        <mxCell id="Dx_CMPOLSW68eJcPcujk-15" value="1,N" style="text;html=1;align=center;verticalAlign=middle;resizable=0;points=[];autosize=1;strokeColor=none;fillColor=none;labelBackgroundColor=none;rounded=1;fontColor=#143642;" parent="1" vertex="1">
          <mxGeometry x="1123.5" y="986.5" width="40" height="30" as="geometry" />
        </mxCell>
        <mxCell id="Dx_CMPOLSW68eJcPcujk-22" style="edgeStyle=orthogonalEdgeStyle;rounded=1;orthogonalLoop=1;jettySize=auto;html=1;exitX=0.5;exitY=1;exitDx=0;exitDy=0;endArrow=none;endFill=0;labelBackgroundColor=none;strokeColor=#A8201A;fontColor=default;" parent="1" source="Dx_CMPOLSW68eJcPcujk-19" target="Dx_CMPOLSW68eJcPcujk-12" edge="1">
          <mxGeometry relative="1" as="geometry" />
        </mxCell>
        <mxCell id="Dx_CMPOLSW68eJcPcujk-19" value="Include" style="rhombus;whiteSpace=wrap;html=1;fontSize=15;labelBackgroundColor=none;rounded=1;fillColor=#FAE5C7;strokeColor=#0F8B8D;fontColor=#143642;" parent="1" vertex="1">
          <mxGeometry x="995.75" y="860" width="91.5" height="67" as="geometry" />
        </mxCell>
        <mxCell id="Dx_CMPOLSW68eJcPcujk-23" value="1,1" style="text;html=1;align=center;verticalAlign=middle;resizable=0;points=[];autosize=1;strokeColor=none;fillColor=none;labelBackgroundColor=none;rounded=1;fontColor=#143642;" parent="1" vertex="1">
          <mxGeometry x="1035" y="971.5" width="40" height="30" as="geometry" />
        </mxCell>
        <mxCell id="Dx_CMPOLSW68eJcPcujk-29" style="edgeStyle=orthogonalEdgeStyle;rounded=1;orthogonalLoop=1;jettySize=auto;html=1;exitX=1;exitY=0.5;exitDx=0;exitDy=0;endArrow=none;endFill=0;labelBackgroundColor=none;strokeColor=#A8201A;fontColor=default;" parent="1" source="Dx_CMPOLSW68eJcPcujk-28" target="Dx_CMPOLSW68eJcPcujk-12" edge="1">
          <mxGeometry relative="1" as="geometry" />
        </mxCell>
        <mxCell id="Dx_CMPOLSW68eJcPcujk-28" value="Ospita" style="rhombus;whiteSpace=wrap;html=1;fontSize=15;labelBackgroundColor=none;rounded=1;fillColor=#FAE5C7;strokeColor=#0F8B8D;fontColor=#143642;" parent="1" vertex="1">
          <mxGeometry x="516.75" y="991.5" width="90" height="60" as="geometry" />
        </mxCell>
        <mxCell id="Dx_CMPOLSW68eJcPcujk-31" value="1,N" style="text;html=1;align=center;verticalAlign=middle;resizable=0;points=[];autosize=1;strokeColor=none;fillColor=none;labelBackgroundColor=none;rounded=1;fontColor=#143642;" parent="1" vertex="1">
          <mxGeometry x="419" y="851" width="40" height="30" as="geometry" />
        </mxCell>
        <mxCell id="Dx_CMPOLSW68eJcPcujk-32" value="1,1" style="text;html=1;align=center;verticalAlign=middle;resizable=0;points=[];autosize=1;strokeColor=none;fillColor=none;labelBackgroundColor=none;rounded=1;fontColor=#143642;" parent="1" vertex="1">
          <mxGeometry x="921.5" y="986.5" width="40" height="30" as="geometry" />
        </mxCell>
        <mxCell id="Dx_CMPOLSW68eJcPcujk-36" style="edgeStyle=none;shape=connector;rounded=1;orthogonalLoop=1;jettySize=auto;html=1;exitX=0;exitY=0.75;exitDx=0;exitDy=0;exitPerimeter=0;labelBackgroundColor=none;fontFamily=Helvetica;fontSize=15;fontColor=default;endArrow=oval;endFill=0;entryX=1.017;entryY=0.633;entryDx=0;entryDy=0;entryPerimeter=0;strokeColor=#A8201A;" parent="1" source="IGpdcPXpx3QODBAOmaDT-103" target="9Mot5vRxFBjQDdBxqjVs-12" edge="1">
          <mxGeometry relative="1" as="geometry">
            <mxPoint x="336.5" y="852" as="sourcePoint" />
            <mxPoint x="280" y="850" as="targetPoint" />
          </mxGeometry>
        </mxCell>
        <mxCell id="Dx_CMPOLSW68eJcPcujk-37" value="Nome" style="text;html=1;align=center;verticalAlign=middle;resizable=0;points=[];autosize=1;strokeColor=none;fillColor=none;fontSize=15;fontFamily=Helvetica;labelBackgroundColor=none;rounded=1;fontColor=#143642;" parent="1" vertex="1">
          <mxGeometry x="237" y="900" width="60" height="30" as="geometry" />
        </mxCell>
        <mxCell id="Dx_CMPOLSW68eJcPcujk-38" style="edgeStyle=none;shape=connector;rounded=1;orthogonalLoop=1;jettySize=auto;html=1;labelBackgroundColor=none;fontFamily=Helvetica;fontSize=15;fontColor=default;endArrow=oval;endFill=1;exitX=0.25;exitY=1;exitDx=0;exitDy=0;exitPerimeter=0;strokeColor=#A8201A;" parent="1" source="Dx_CMPOLSW68eJcPcujk-12" target="Dx_CMPOLSW68eJcPcujk-39" edge="1">
          <mxGeometry relative="1" as="geometry">
            <mxPoint x="1002.5" y="1060.5" as="sourcePoint" />
            <mxPoint x="1003" y="1130.5" as="targetPoint" />
          </mxGeometry>
        </mxCell>
        <mxCell id="Dx_CMPOLSW68eJcPcujk-39" value="&lt;span style=&quot;font-size: 15px;&quot;&gt;ID&lt;/span&gt;" style="text;html=1;align=center;verticalAlign=middle;resizable=0;points=[];autosize=1;strokeColor=none;fillColor=none;fontSize=15;fontFamily=Helvetica;labelBackgroundColor=none;rounded=1;fontColor=#143642;" parent="1" vertex="1">
          <mxGeometry x="981.5" y="1071" width="40" height="30" as="geometry" />
        </mxCell>
        <mxCell id="Dx_CMPOLSW68eJcPcujk-42" style="edgeStyle=orthogonalEdgeStyle;rounded=1;orthogonalLoop=1;jettySize=auto;html=1;exitX=1;exitY=0.5;exitDx=0;exitDy=0;endArrow=none;endFill=0;labelBackgroundColor=none;strokeColor=#A8201A;fontColor=default;" parent="1" source="Dx_CMPOLSW68eJcPcujk-40" target="Dx_CMPOLSW68eJcPcujk-12" edge="1">
          <mxGeometry relative="1" as="geometry">
            <Array as="points">
              <mxPoint x="980" y="1096" />
            </Array>
          </mxGeometry>
        </mxCell>
        <mxCell id="Dx_CMPOLSW68eJcPcujk-43" style="edgeStyle=orthogonalEdgeStyle;rounded=1;orthogonalLoop=1;jettySize=auto;html=1;endArrow=none;endFill=0;labelBackgroundColor=none;strokeColor=#A8201A;fontColor=default;exitX=0;exitY=0.5;exitDx=0;exitDy=0;" parent="1" source="Dx_CMPOLSW68eJcPcujk-40" target="IGpdcPXpx3QODBAOmaDT-111" edge="1">
          <mxGeometry relative="1" as="geometry">
            <Array as="points">
              <mxPoint x="80" y="1096" />
              <mxPoint x="80" y="116" />
              <mxPoint x="369" y="116" />
            </Array>
            <mxPoint x="500" y="1120" as="sourcePoint" />
            <mxPoint x="369" y="206" as="targetPoint" />
          </mxGeometry>
        </mxCell>
        <mxCell id="Dx_CMPOLSW68eJcPcujk-40" value="Coltiva*" style="rhombus;whiteSpace=wrap;html=1;fontSize=15;labelBackgroundColor=none;rounded=1;fillColor=#FAE5C7;strokeColor=#0F8B8D;fontColor=#143642;" parent="1" vertex="1">
          <mxGeometry x="519.75" y="1066" width="90.25" height="60" as="geometry" />
        </mxCell>
        <mxCell id="Dx_CMPOLSW68eJcPcujk-44" value="1,1" style="text;html=1;align=center;verticalAlign=middle;resizable=0;points=[];autosize=1;strokeColor=none;fillColor=none;labelBackgroundColor=none;rounded=1;fontColor=#143642;" parent="1" vertex="1">
          <mxGeometry x="941.5" y="1110" width="40" height="30" as="geometry" />
        </mxCell>
        <mxCell id="2ZxViYWchOxOmelXp1Hh-5" value="1,N" style="text;html=1;align=center;verticalAlign=middle;resizable=0;points=[];autosize=1;strokeColor=none;fillColor=none;labelBackgroundColor=none;rounded=1;fontColor=#143642;" parent="1" vertex="1">
          <mxGeometry x="363" y="195" width="40" height="30" as="geometry" />
        </mxCell>
        <mxCell id="77c9ratOZqriTQwKT7vz-1" value="Comune" style="text;html=1;align=center;verticalAlign=middle;resizable=0;points=[];autosize=1;strokeColor=none;fillColor=none;fontSize=15;fontFamily=Helvetica;labelBackgroundColor=none;rounded=1;fontColor=#143642;" parent="1" vertex="1">
          <mxGeometry x="283" y="560" width="80" height="30" as="geometry" />
        </mxCell>
        <mxCell id="77c9ratOZqriTQwKT7vz-2" value="1,1" style="text;html=1;align=center;verticalAlign=middle;resizable=0;points=[];autosize=1;strokeColor=none;fillColor=none;labelBackgroundColor=none;rounded=1;fontColor=#143642;" parent="1" vertex="1">
          <mxGeometry x="364" y="260" width="40" height="30" as="geometry" />
        </mxCell>
        <mxCell id="77c9ratOZqriTQwKT7vz-3" style="edgeStyle=none;shape=connector;rounded=1;orthogonalLoop=1;jettySize=auto;html=1;labelBackgroundColor=none;fontFamily=Helvetica;fontSize=15;fontColor=default;endArrow=oval;endFill=0;entryX=0.891;entryY=-0.125;entryDx=0;entryDy=0;entryPerimeter=0;exitX=0.151;exitY=0.975;exitDx=0;exitDy=0;exitPerimeter=0;strokeColor=#A8201A;" parent="1" source="IGpdcPXpx3QODBAOmaDT-8" target="77c9ratOZqriTQwKT7vz-1" edge="1">
          <mxGeometry relative="1" as="geometry">
            <mxPoint x="267" y="550" as="targetPoint" />
            <mxPoint x="419" y="490" as="sourcePoint" />
          </mxGeometry>
        </mxCell>
        <mxCell id="77c9ratOZqriTQwKT7vz-7" value="*Classe che l&#39;ha messa a dimora" style="shape=card;whiteSpace=wrap;html=1;size=31;rounded=1;labelBackgroundColor=none;fillColor=#FAE5C7;strokeColor=#0F8B8D;fontColor=#143642;" parent="1" vertex="1">
          <mxGeometry x="610" y="1106" width="242" height="48" as="geometry" />
        </mxCell>
        <mxCell id="77c9ratOZqriTQwKT7vz-8" style="edgeStyle=orthogonalEdgeStyle;rounded=1;orthogonalLoop=1;jettySize=auto;html=1;exitX=0.5;exitY=1;exitDx=0;exitDy=0;exitPerimeter=0;labelBackgroundColor=none;strokeColor=#A8201A;fontColor=default;" parent="1" source="77c9ratOZqriTQwKT7vz-7" target="77c9ratOZqriTQwKT7vz-7" edge="1">
          <mxGeometry relative="1" as="geometry" />
        </mxCell>
        <mxCell id="Cz-QfQRwU2EtAwHV8mNd-4" value="Tipo" style="text;html=1;align=center;verticalAlign=middle;resizable=0;points=[];autosize=1;strokeColor=none;fillColor=none;fontSize=15;fontFamily=Helvetica;labelBackgroundColor=none;rotation=0;rounded=1;fontColor=#143642;" parent="1" vertex="1">
          <mxGeometry x="174" y="546" width="50" height="30" as="geometry" />
        </mxCell>
        <mxCell id="Cz-QfQRwU2EtAwHV8mNd-5" style="edgeStyle=none;shape=connector;rounded=1;orthogonalLoop=1;jettySize=auto;html=1;exitX=0;exitY=1;exitDx=0;exitDy=0;exitPerimeter=0;entryX=1.02;entryY=0.467;entryDx=0;entryDy=0;entryPerimeter=0;labelBackgroundColor=none;fontFamily=Helvetica;fontSize=15;fontColor=default;endArrow=oval;endFill=0;strokeColor=#A8201A;" parent="1" source="IGpdcPXpx3QODBAOmaDT-8" target="Cz-QfQRwU2EtAwHV8mNd-4" edge="1">
          <mxGeometry relative="1" as="geometry">
            <Array as="points" />
            <mxPoint x="340" y="530" as="sourcePoint" />
            <mxPoint x="270" y="586" as="targetPoint" />
          </mxGeometry>
        </mxCell>
        <mxCell id="hBhSmYuqApCjBbth0nBB-10" value="Nome" style="text;html=1;align=center;verticalAlign=middle;resizable=0;points=[];autosize=1;strokeColor=none;fillColor=none;fontSize=14;labelBackgroundColor=none;rounded=1;fontColor=#143642;" parent="1" vertex="1">
          <mxGeometry x="850" y="415" width="60" height="30" as="geometry" />
        </mxCell>
        <mxCell id="evEw9KSfcbFm4l8Vjmlg-4" value="&lt;span style=&quot;font-size: 15px;&quot;&gt;Sole&lt;br&gt;&lt;/span&gt;" style="text;html=1;align=center;verticalAlign=middle;resizable=0;points=[];autosize=1;strokeColor=none;fillColor=none;fontSize=15;fontFamily=Helvetica;labelBackgroundColor=none;rounded=1;fontColor=#143642;" parent="1" vertex="1">
          <mxGeometry x="974.5" y="921" width="48" height="30" as="geometry" />
        </mxCell>
        <mxCell id="evEw9KSfcbFm4l8Vjmlg-5" value="&lt;span style=&quot;font-size: 15px;&quot;&gt;Ombra&lt;/span&gt;" style="text;html=1;align=center;verticalAlign=middle;resizable=0;points=[];autosize=1;strokeColor=none;fillColor=none;fontSize=15;fontFamily=Helvetica;labelBackgroundColor=none;rounded=1;fontColor=#143642;" parent="1" vertex="1">
          <mxGeometry x="917.5" y="921" width="64" height="30" as="geometry" />
        </mxCell>
        <mxCell id="evEw9KSfcbFm4l8Vjmlg-6" style="edgeStyle=none;shape=connector;rounded=1;orthogonalLoop=1;jettySize=auto;html=1;labelBackgroundColor=none;fontFamily=Helvetica;fontSize=15;fontColor=default;endArrow=oval;endFill=0;exitX=0.309;exitY=-0.037;exitDx=0;exitDy=0;exitPerimeter=0;strokeColor=#A8201A;" parent="1" source="Dx_CMPOLSW68eJcPcujk-12" target="evEw9KSfcbFm4l8Vjmlg-5" edge="1">
          <mxGeometry relative="1" as="geometry">
            <mxPoint x="980" y="1041" as="sourcePoint" />
            <mxPoint x="899" y="966" as="targetPoint" />
          </mxGeometry>
        </mxCell>
        <mxCell id="evEw9KSfcbFm4l8Vjmlg-8" style="edgeStyle=none;shape=connector;rounded=1;orthogonalLoop=1;jettySize=auto;html=1;labelBackgroundColor=none;fontFamily=Helvetica;fontSize=15;fontColor=default;endArrow=oval;endFill=0;strokeColor=#A8201A;entryX=1.021;entryY=0.517;entryDx=0;entryDy=0;entryPerimeter=0;exitX=0.384;exitY=0.063;exitDx=0;exitDy=0;exitPerimeter=0;" parent="1" source="Dx_CMPOLSW68eJcPcujk-12" target="evEw9KSfcbFm4l8Vjmlg-4" edge="1">
          <mxGeometry relative="1" as="geometry">
            <mxPoint x="1024" y="988" as="sourcePoint" />
            <mxPoint x="959" y="1079" as="targetPoint" />
          </mxGeometry>
        </mxCell>
        <mxCell id="evEw9KSfcbFm4l8Vjmlg-12" value="0,1" style="text;html=1;align=center;verticalAlign=middle;resizable=0;points=[];autosize=1;strokeColor=none;fillColor=none;labelBackgroundColor=none;rounded=1;fontColor=#143642;" parent="1" vertex="1">
          <mxGeometry x="879" y="969" width="35" height="26" as="geometry" />
        </mxCell>
        <mxCell id="evEw9KSfcbFm4l8Vjmlg-13" value="0,1" style="text;html=1;align=center;verticalAlign=middle;resizable=0;points=[];autosize=1;strokeColor=none;fillColor=none;labelBackgroundColor=none;rounded=1;fontColor=#143642;" parent="1" vertex="1">
          <mxGeometry x="991.5" y="941" width="35" height="26" as="geometry" />
        </mxCell>
        <mxCell id="evEw9KSfcbFm4l8Vjmlg-14" value="0,1" style="text;html=1;align=center;verticalAlign=middle;resizable=0;points=[];autosize=1;strokeColor=none;fillColor=none;labelBackgroundColor=none;rounded=1;fontColor=#143642;" parent="1" vertex="1">
          <mxGeometry x="930" y="943" width="35" height="26" as="geometry" />
        </mxCell>
        <mxCell id="evEw9KSfcbFm4l8Vjmlg-21" style="edgeStyle=orthogonalEdgeStyle;rounded=0;orthogonalLoop=1;jettySize=auto;html=1;exitX=0;exitY=0.5;exitDx=0;exitDy=0;exitPerimeter=0;entryX=0.905;entryY=0.483;entryDx=0;entryDy=0;entryPerimeter=0;endArrow=none;endFill=0;labelBackgroundColor=none;strokeColor=#A8201A;fontColor=default;" parent="1" source="evEw9KSfcbFm4l8Vjmlg-16" target="evEw9KSfcbFm4l8Vjmlg-17" edge="1">
          <mxGeometry relative="1" as="geometry" />
        </mxCell>
        <mxCell id="evEw9KSfcbFm4l8Vjmlg-26" style="edgeStyle=orthogonalEdgeStyle;rounded=0;orthogonalLoop=1;jettySize=auto;html=1;exitX=1;exitY=0.5;exitDx=0;exitDy=0;exitPerimeter=0;strokeColor=#A8201A;fontColor=#143642;fillColor=#FAE5C7;endArrow=oval;endFill=0;" parent="1" source="evEw9KSfcbFm4l8Vjmlg-16" target="evEw9KSfcbFm4l8Vjmlg-25" edge="1">
          <mxGeometry relative="1" as="geometry" />
        </mxCell>
        <mxCell id="evEw9KSfcbFm4l8Vjmlg-16" value="RUOLO" style="whiteSpace=wrap;html=1;rounded=1;shadow=0;glass=0;fontSize=15;points=[[0,0,0,0,0],[0,0.25,0,0,0],[0,0.5,0,0,0],[0,0.75,0,0,0],[0,1,0,0,0],[0.25,0,0,0,0],[0.25,1,0,0,0],[0.5,0,0,0,0],[0.5,1,0,0,0],[0.75,0,0,0,0],[0.75,1,0,0,0],[1,0,0,0,0],[1,0.25,0,0,0],[1,0.5,0,0,0],[1,0.75,0,0,0],[1,1,0,0,0]];labelBackgroundColor=none;fillColor=#FAE5C7;strokeColor=#0F8B8D;fontColor=#143642;" parent="1" vertex="1">
          <mxGeometry x="1388" y="365" width="100" height="40" as="geometry" />
        </mxCell>
        <mxCell id="evEw9KSfcbFm4l8Vjmlg-22" style="edgeStyle=orthogonalEdgeStyle;rounded=0;orthogonalLoop=1;jettySize=auto;html=1;exitX=0;exitY=0.5;exitDx=0;exitDy=0;strokeColor=#A8201A;fontColor=#143642;fillColor=#FAE5C7;endArrow=none;endFill=0;entryX=0.85;entryY=0;entryDx=0;entryDy=0;entryPerimeter=0;" parent="1" source="evEw9KSfcbFm4l8Vjmlg-17" target="IGpdcPXpx3QODBAOmaDT-12" edge="1">
          <mxGeometry relative="1" as="geometry">
            <mxPoint x="1194" y="420" as="targetPoint" />
          </mxGeometry>
        </mxCell>
        <mxCell id="evEw9KSfcbFm4l8Vjmlg-17" value="Possiede" style="rhombus;whiteSpace=wrap;html=1;rounded=1;shadow=0;glass=0;fontSize=15;align=center;verticalAlign=middle;labelBackgroundColor=none;fillColor=#FAE5C7;strokeColor=#0F8B8D;fontColor=#143642;" parent="1" vertex="1">
          <mxGeometry x="1238.75" y="356" width="84.25" height="60" as="geometry" />
        </mxCell>
        <mxCell id="evEw9KSfcbFm4l8Vjmlg-23" value="1,N" style="text;html=1;align=center;verticalAlign=middle;resizable=0;points=[];autosize=1;strokeColor=none;fillColor=none;fontSize=15;fontFamily=Helvetica;rounded=1;labelBackgroundColor=none;fontColor=#143642;" parent="1" vertex="1">
          <mxGeometry x="1177" y="449" width="41" height="30" as="geometry" />
        </mxCell>
        <mxCell id="evEw9KSfcbFm4l8Vjmlg-24" value="1,N" style="text;html=1;align=center;verticalAlign=middle;resizable=0;points=[];autosize=1;strokeColor=none;fillColor=none;fontSize=15;fontFamily=Helvetica;rounded=1;labelBackgroundColor=none;fontColor=#143642;" parent="1" vertex="1">
          <mxGeometry x="1347" y="385" width="41" height="30" as="geometry" />
        </mxCell>
        <mxCell id="evEw9KSfcbFm4l8Vjmlg-25" value="Tipo" style="text;html=1;align=center;verticalAlign=middle;resizable=0;points=[];autosize=1;strokeColor=none;fillColor=none;fontSize=15;fontFamily=Helvetica;labelBackgroundColor=none;rounded=1;fontColor=#143642;" parent="1" vertex="1">
          <mxGeometry x="1514" y="370" width="47" height="30" as="geometry" />
        </mxCell>
        <mxCell id="evEw9KSfcbFm4l8Vjmlg-29" value="&lt;span style=&quot;font-size: 15px;&quot;&gt;ID&lt;/span&gt;" style="text;html=1;align=center;verticalAlign=middle;resizable=0;points=[];autosize=1;strokeColor=none;fillColor=none;fontSize=15;fontFamily=Helvetica;labelBackgroundColor=none;rounded=1;fontColor=#143642;" parent="1" vertex="1">
          <mxGeometry x="1381.5" y="894" width="33" height="30" as="geometry" />
        </mxCell>
        <mxCell id="evEw9KSfcbFm4l8Vjmlg-30" style="edgeStyle=none;shape=connector;rounded=1;orthogonalLoop=1;jettySize=auto;html=1;entryX=0.015;entryY=0.167;entryDx=0;entryDy=0;entryPerimeter=0;labelBackgroundColor=none;fontFamily=Helvetica;fontSize=15;fontColor=default;endArrow=oval;endFill=1;exitX=0.5;exitY=1;exitDx=0;exitDy=0;exitPerimeter=0;strokeColor=#A8201A;" parent="1" source="9Mot5vRxFBjQDdBxqjVs-58" target="evEw9KSfcbFm4l8Vjmlg-29" edge="1">
          <mxGeometry relative="1" as="geometry">
            <mxPoint x="1429" y="860" as="sourcePoint" />
            <mxPoint x="1429" y="899" as="targetPoint" />
          </mxGeometry>
        </mxCell>
      </root>
    </mxGraphModel>
  </diagram>
</mxfile>
